<?xml version="1.0" encoding="UTF-8" standalone="no"?>
<svg
   viewBox="-22.98 -3.25 105.744 15.183654"
   width="105.744"
   height="15.183654"
   fill="#373c41"
   version="1.1"
   id="svg395"
   sodipodi:docname="alibabacloud-ar21.svg"
   inkscape:export-filename="alibabacloud-ar21.svg"
   inkscape:export-xdpi="96"
   inkscape:export-ydpi="96"
   xmlns:inkscape="http://www.inkscape.org/namespaces/inkscape"
   xmlns:sodipodi="http://sodipodi.sourceforge.net/DTD/sodipodi-0.dtd"
   xmlns="http://www.w3.org/2000/svg"
   xmlns:svg="http://www.w3.org/2000/svg">
  <defs
     id="defs399" />
  <sodipodi:namedview
     id="namedview397"
     pagecolor="#ffffff"
     bordercolor="#000000"
     borderopacity="0.25"
     inkscape:showpageshadow="2"
     inkscape:pageopacity="0.0"
     inkscape:pagecheckerboard="0"
     inkscape:deskcolor="#d1d1d1"
     showgrid="false" />
  <path
     d="m -19.658,-3.1584518 c -1.114,0.225 -2.3,1.118 -2.807,2.094 -0.507,0.97599998 -0.515,1.21499998 -0.515,5.32 l 0.092,4.28 c 0.327,1.6699998 1.633,2.9769998 3.304,3.3039998 0.506,0.092 7.096,0.138 7.096,0.037 0,-0.074 -0.56,-2.2819998 -0.6,-2.2999998 -0.01,-0.018 -1.178,-0.276 -2.595,-0.58 -3.304,-0.718 -3.203,-0.7 -3.48,-1.022 l -0.24,-0.285 v -6.682 l 0.24,-0.30000002 c 0.276,-0.33 0.175,-0.304 3.48,-1.022 l 2.595,-0.58 c 0.028,-0.028 0.6,-2.23599998 0.6,-2.29999998 0,-0.087 -6.728,-0.046 -7.17,0.046 z m 10.667,0.014 c 0.01,0.166 0.525,2.19999998 0.58,2.24599998 0.018,0.028 1.28,0.313 2.8,0.635 l 2.973,0.718 a 1.13,1.13 0 0 1 0.396,0.387 c 0.147,0.25800002 0.166,0.53400002 0.166,3.49700002 l -0.166,3.497 a 1.21,1.21 0 0 1 -0.396,0.387 c -0.12,0.064 -1.454,0.387 -2.973,0.718 l -2.8,0.635 a 24.84,24.84 0 0 0 -0.58,2.2459998 c 0,0.1 0.663,0.12 3.57,0.092 4.013,-0.037 4.06,-0.046 5.08,-0.736 A 4.2,4.2 0 0 0 1.242,9.1065482 c 0.212,-0.617 0.212,-0.672 0.212,-4.767 L 1.242,-0.43045182 A 4.2,4.2 0 0 0 -0.341,-2.5014518 c -1.022,-0.7 -1.068,-0.7 -5.08,-0.736 -2.908,-0.028 -3.57,-0.014 -3.57,0.092 z M 8.136,-0.01445182 C 7.501,1.3105482 6.866,2.9485482 6.213,4.9355482 l -1.307,4.482 c 0.245,0.024 0.5,0.033 0.736,0.028 h 0.727 l 0.1,-0.396 0.36,-1.26 0.248,-0.874 h 5.053 l 0.258,0.92 0.35,1.26 0.092,0.35 h 0.727 l 0.736,-0.028 c 0,-0.018 -0.184,-0.7 -0.414,-1.528 -0.837,-3.028 -1.905,-6 -2.807,-7.87800002 l -0.48,-0.966 H 8.586 Z m 2.18,1.84000002 1.307,3.534 c 0,0.018 -0.9,0.037 -2.025,0.037 -1.125,0 -2.025,-0.037 -2.025,-0.074 0,-0.156 0.93,-2.632 1.38,-3.7 0.35,-0.82000002 0.525,-1.11400002 0.644,-1.11400002 0.119,0 0.304,0.34 0.718,1.30700002 z m 4.896,2.42 v 5.2 h 1.473 V -0.95445182 h -1.473 z m 3.313,-5.08000002 a 1.2,1.2 0 0 0 -0.405,0.46 c -0.147,0.313 -0.156,0.387 -0.037,0.7 0.16,0.462 0.656,0.71400002 1.123,0.57 0.46,-0.147 0.653,-0.414 0.653,-0.893 0,-0.35 -0.046,-0.45 -0.304,-0.68 -0.322,-0.285 -0.653,-0.33999998 -1.03,-0.147 z m 2.67,5.06200002 v 5.2 l 1.132,0.083 2.135,0.083 c 0.93,0 1.058,-0.018 1.546,-0.267 0.575,-0.26 1.006,-0.763 1.178,-1.37 0.055,-0.22 0.083,-1.196 0.064,-2.53 -0.028,-2.052 -0.037,-2.2 -0.23,-2.568 -0.36,-0.663 -0.902,-0.985 -1.905,-1.123 -0.534,-0.074 -1.86,0 -2.264,0.13 -0.175,0.055 -0.184,0.018 -0.184,-1.37000002 v -1.446 h -1.473 z m 4.187,-0.994 a 0.75,0.75 0 0 1 0.414,0.368 c 0.12,0.313 0.12,3.737 0,4.04 -0.138,0.377 -0.6,0.552 -1.473,0.552 a 8.47,8.47 0 0 1 -1.215,-0.074 l -0.442,-0.064 v -4.758 l 0.534,-0.092 c 0.82,-0.138 1.822,-0.13 2.18,0.028 z m 10.446,1.003 v 5.2 l 0.902,0.046 1.877,0.12 c 1.26,0.074 2.052,-0.13 2.568,-0.672 0.663,-0.68 0.68,-0.764 0.7,-3.083 0.028,-1.684 0.01,-2.2 -0.1,-2.577 -0.248,-0.865 -0.966,-1.408 -2.062,-1.537 -0.552,-0.064 -1.997,0.01 -2.292,0.13 -0.092,0.028 -0.12,-0.285 -0.12,-1.38000002 v -1.427 h -1.473 z m 4.132,-1.045 c 0.156,0.055 0.33,0.175 0.377,0.267 0.1,0.184 0.13,4.03 0.037,4.28 -0.156,0.405 -1.4,0.58 -2.632,0.377 l -0.442,-0.064 v -4.752 l 0.534,-0.092 c 0.736,-0.12 1.776,-0.13 2.126,-0.014 z m 14.624,-4.05400002 c -0.92,0.166 -1.4,0.387 -1.868,0.865 -0.736,0.736 -0.782,1.00300002 -0.782,4.33500002 0,3.332 0.046,3.598 0.8,4.344 0.387,0.396 0.6,0.515 1.15,0.7 0.6,0.184 0.874,0.212 2.108,0.212 1.068,0 1.62,-0.046 2.172,-0.175 a 6.14,6.14 0 0 0 0.865,-0.239 c 0.074,-0.046 0.064,-0.212 -0.046,-0.653 a 4.01,4.01 0 0 0 -0.212,-0.653 c -0.037,-0.037 -0.267,-0.01 -0.506,0.064 -0.82,0.248 -2.255,0.35 -3.148,0.24 -0.893,-0.11 -1.224,-0.258 -1.5,-0.617 -0.184,-0.24 -0.193,-0.34 -0.193,-3.212 0,-2.872 0.01,-2.973 0.193,-3.212 0.285,-0.36000002 0.607,-0.49700002 1.5,-0.61700002 0.893,-0.12 2.328,-0.01 3.148,0.24 l 0.497,0.138 c 0.074,0 0.396,-1.28 0.34,-1.334 -0.028,-0.028 -0.368,-0.13 -0.773,-0.24 -0.8,-0.212 -2.973,-0.313 -3.737,-0.175 z M 60.4,4.2455482 v 5.2 h 1.38 V -0.95445182 H 60.4 Z M 81.3,0.42554818 V 1.8055482 l -0.525,-0.055 -0.736,-0.092 c -0.313,-0.055 -1.473,0.13 -1.804,0.295 a 2.47,2.47 0 0 0 -1.012,1.003 c -0.184,0.34 -0.202,0.534 -0.23,2.4 -0.037,2.512 0.037,2.88 0.7,3.534 0.598,0.58 1.307,0.773 2.512,0.7 l 1.712,-0.1 0.847,-0.055 V -0.94445182 H 81.292 Z M 81.144,3.2325482 c 0.147,0.064 0.156,0.267 0.156,2.448 v 2.374 l -0.34,0.064 c -0.6,0.12 -1.712,0.092 -2.034,-0.046 -0.166,-0.074 -0.34,-0.202 -0.387,-0.295 -0.047,-0.093 -0.092,-1.068 -0.092,-2.172 0,-2.2 0.018,-2.264 0.506,-2.42 0.295,-0.092 1.914,-0.055 2.2,0.046 z m -50.46,-1.513 a 11.83,11.83 0 0 0 -1.224,0.23 c -0.497,0.12 -0.617,0.184 -0.58,0.304 0.028,0.083 0.092,0.35 0.156,0.607 0.064,0.257 0.13,0.488 0.166,0.515 0.036,0.027 0.433,-0.018 0.884,-0.1 1.537,-0.322 2.577,-0.175 2.724,0.377 a 4.27,4.27 0 0 1 0.074,0.745 l 0.01,0.515 -0.874,-0.046 c -2.338,-0.12 -3.746,0.755 -3.764,2.328 -0.01,0.745 0.23,1.325 0.727,1.785 0.58,0.534 1.196,0.7 2.384,0.617 l 1.923,-0.1 0.994,-0.064 -0.055,-6.185 -0.258,-0.433 c -0.515,-0.87 -1.74,-1.275 -3.286,-1.077 z m 2.144,4.657 c 0.092,0.055 0.083,1.684 -0.01,1.684 -0.046,0 -0.515,0.046 -1.05,0.1 -1.537,0.147 -2.098,-0.083 -2.098,-0.874 0,-0.34 0.046,-0.442 0.276,-0.644 0.2,-0.155 0.458,-0.253 0.718,-0.285 l 0.57,-0.092 c 0.166,-0.037 1.5,0.05 1.592,0.115 z m 12.535,-4.67 -1.224,0.24 c -0.617,0.147 -0.672,0.184 -0.626,0.36 l 0.166,0.68 c 0.1,0.46 0.12,0.488 0.34,0.433 1.233,-0.322 2.42,-0.414 2.9,-0.24 0.433,0.166 0.525,0.35 0.525,1.05 v 0.663 h -1.142 c -1.445,0 -2.108,0.184 -2.743,0.755 a 2.05,2.05 0 0 0 -0.709,1.841 c 0.156,1.5 1.224,2.227 3.138,2.108 l 1.923,-0.1 0.994,-0.064 -0.028,-3.046 c -0.028,-2.927 -0.037,-3.065 -0.23,-3.424 -0.525,-0.985 -1.712,-1.427 -3.295,-1.242 z m 1.822,4.6 h 0.248 v 1.74 l -0.525,0.064 c -1.012,0.13 -1.997,0.1 -2.255,-0.074 -0.515,-0.34 -0.497,-1.233 0.028,-1.5 0.36,-0.184 1.215,-0.313 1.785,-0.258 l 0.718,0.037 z m 17.836,-4.602 a 2.57,2.57 0 0 0 -1.427,0.865 c -0.47,0.617 -0.515,0.92 -0.515,3.13 0,2.264 0.064,2.53 0.672,3.166 0.6,0.617 0.884,0.7 2.273,0.7 1.427,0 1.75,-0.1 2.338,-0.8 0.56,-0.663 0.626,-0.994 0.6,-3.322 -0.028,-1.896 -0.046,-2.08 -0.23,-2.43 a 2.76,2.76 0 0 0 -1.206,-1.16 c -0.47,-0.212 -1.85,-0.304 -2.494,-0.166 z m 2.025,1.528 c 0.47,0.24 0.543,0.57 0.543,2.384 0,1.72 -0.064,2.043 -0.46,2.393 -0.285,0.258 -1.583,0.322 -2.052,0.092 -0.552,-0.258 -0.617,-0.525 -0.617,-2.485 0,-1.877 0.055,-2.126 0.534,-2.384 0.35,-0.193 1.684,-0.193 2.052,0 z m -48.787,2.384 v 3.82 h 1.38 v -7.64 h -1.38 z m 51.85,-3.7 c -0.028,0.074 -0.037,1.454 -0.018,3.065 0.028,2.65 0.046,2.963 0.202,3.258 0.543,1.022 1.463,1.445 2.963,1.344 l 2.616,-0.157 v -7.62 h -1.4 v 6.25 l -0.433,0.064 c -0.8,0.13 -1.795,0.083 -2.117,-0.083 l -0.322,-0.184 c -0.01,-0.01 -0.046,-1.362 -0.074,-3 l -0.046,-3 -0.672,-0.028 c -0.506,-0.018 -0.68,0 -0.718,0.1 z m -83.207,2.227 a 0.65,0.65 0 0 0 -0.018,0.304 c 0.028,0.156 0.193,0.166 2.356,0.193 l 2.32,0.018 v -0.644 h -2.3 c -1.923,0 -2.32,0.018 -2.356,0.13 z"
     id="path393" />
</svg>
