<?xml version="1.0" encoding="utf-8"?>
<!-- Generator: Adobe Illustrator 23.0.1, SVG Export Plug-In . SVG Version: 6.00 Build 0)  -->
<svg version="1.1" id="Livello_1" xmlns="http://www.w3.org/2000/svg" xmlns:xlink="http://www.w3.org/1999/xlink" x="0px" y="0px"
	 viewBox="0 0 1754.1 250" enable-background="new 0 0 1754.1 250" xml:space="preserve">
<g>
	<path fill-rule="evenodd" clip-rule="evenodd" fill="#737373" d="M1304.6,50l56.5,150h-28.7l-13.3-37.2H1260l-12.8,37.2h-28.5
		l56.5-150H1304.6z M1289.1,77.8l-22.2,63.2h45l-22.1-63.2H1289.1z"/>
	<polygon fill-rule="evenodd" clip-rule="evenodd" fill="#737373" points="1374,92.5 1459.8,92.5 1459.8,102.6 1403.5,179.9 
		1460.2,179.9 1460.2,200 1370,200 1370,188 1425.5,112.5 1374,112.5 	"/>
	<path fill-rule="evenodd" clip-rule="evenodd" fill="#737373" d="M1571.6,92.5V200H1546v-14.1h-0.4c-3.3,4.9-7.8,8.7-13.4,11.5
		c-5.6,2.8-11.9,4.1-18.9,4.1c-12.5,0-22-3.5-28.5-10.6c-6.5-7.1-9.8-18.1-9.8-33V92.5h25.6v62.3c0,9.1,1.8,15.9,5.4,20.5
		c3.6,4.6,9,6.8,16.3,6.8c7.2,0,12.9-2.5,17.3-7.6c4.3-5.1,6.5-11.7,6.5-19.8V92.5H1571.6z"/>
	<path fill-rule="evenodd" clip-rule="evenodd" fill="#737373" d="M1644.3,90.7c2,0,3.8,0.1,5.4,0.4c1.6,0.3,3,0.6,4.1,1.1v25.6
		c-1.3-1-3.3-1.9-5.8-2.8c-2.5-0.9-5.6-1.3-9.3-1.3c-6.2,0-11.5,2.6-15.7,7.8c-4.3,5.2-6.4,13.3-6.4,24.2V200h-25.3V92.5h25.3v16.9
		h0.4c2.3-5.9,5.8-10.4,10.5-13.8C1632.1,92.4,1637.8,90.7,1644.3,90.7z"/>
	<path fill-rule="evenodd" clip-rule="evenodd" fill="#737373" d="M1745.4,172.9v20.8c-4.2,2.7-9.7,4.8-16.4,6.4
		c-6.8,1.6-14,2.5-21.6,2.5c-16.4,0-29.1-4.8-38.2-14.5c-9.1-9.7-13.6-23.2-13.6-40.5c0-16.7,4.9-30.4,14.6-41.2
		c9.7-10.8,22.1-16.2,37-16.2c14.9,0,26.4,4.5,34.7,13.6c8.3,9.1,12.4,21.7,12.4,37.7v12.2h-73.6c1.1,10.8,4.6,18.4,10.4,22.6
		c5.8,4.3,13.3,6.4,22.5,6.4c6.1,0,11.9-0.9,17.4-2.8C1736.2,178.3,1741.1,175.9,1745.4,172.9z M1729.2,135.4
		c0-8.4-1.9-14.7-5.8-19.1c-3.9-4.4-9.3-6.6-16.4-6.6c-6.1,0-11.5,2.2-16.3,6.5c-4.8,4.4-8,10.7-9.6,19.2H1729.2z"/>
	<path fill-rule="evenodd" clip-rule="evenodd" fill="#737373" d="M487.4,50v150h-26V82.4h-0.4L414.3,200h-17.3L349.4,82.4h-0.3V200
		H325V50h37.3l43.1,111.2h0.6L451.6,50H487.4z M509.1,61.4c0-4.2,1.5-7.7,4.6-10.5c3-2.8,6.6-4.2,10.8-4.2c4.5,0,8.2,1.4,11.1,4.3
		c2.9,2.9,4.4,6.4,4.4,10.4c0,4.1-1.5,7.6-4.5,10.3c-3,2.8-6.7,4.2-11,4.2c-4.3,0-8-1.4-10.9-4.2C510.6,68.9,509.1,65.4,509.1,61.4z
		 M511.8,200h25.3V92.5h-25.3V200z M613.9,181.6c3.8,0,7.9-0.9,12.4-2.6c4.5-1.7,8.7-4.1,12.6-6.9v23.5c-4,2.3-8.6,4-13.8,5.2
		c-5.1,1.2-10.8,1.8-16.9,1.8c-15.8,0-28.7-5-38.6-15c-9.9-10-14.9-22.8-14.9-38.3c0-17.3,5.1-31.5,15.2-42.7
		c10.1-11.2,24.4-16.8,43-16.8c4.7,0,9.5,0.6,14.4,1.8c4.8,1.2,8.7,2.6,11.6,4.2v24.3c-3.9-2.9-7.9-5.1-12-6.6
		c-4.1-1.6-8.2-2.3-12.5-2.3c-10,0-18,3.2-24.2,9.7c-6.1,6.5-9.2,15.2-9.2,26.2c0,10.9,2.9,19.4,8.8,25.4
		C595.7,178.6,603.7,181.6,613.9,181.6z M710.9,90.7c2,0,3.8,0.1,5.4,0.4c1.6,0.3,3,0.6,4.1,1v25.6c-1.3-1-3.3-1.9-5.8-2.8
		c-2.5-0.9-5.6-1.3-9.3-1.3c-6.2,0-11.5,2.6-15.7,7.8c-4.3,5.2-6.4,13.3-6.4,24.2V200h-25.3V92.5h25.3v16.9h0.4
		c2.3-5.9,5.8-10.4,10.5-13.8C698.8,92.4,704.4,90.7,710.9,90.7z M721.8,147.8c0-17.8,5-31.9,15.1-42.3c10-10.4,24-15.6,41.8-15.6
		c16.8,0,29.9,5,39.4,15c9.4,10,14.2,23.5,14.2,40.5c0,17.4-5,31.3-15.1,41.6c-10,10.3-23.7,15.5-41,15.5
		c-16.7,0-29.9-4.9-39.7-14.7C726.7,178.1,721.8,164.8,721.8,147.8z M748.2,147c0,11.2,2.5,19.8,7.6,25.7c5.1,5.9,12.4,8.9,21.9,8.9
		c9.2,0,16.2-3,21-8.9c4.8-5.9,7.2-14.7,7.2-26.4c0-11.6-2.5-20.3-7.5-26.2c-5-5.9-12-8.8-21-8.8c-9.3,0-16.5,3.1-21.6,9.3
		C750.7,126.7,748.2,135.5,748.2,147z M869.9,120.7c0,3.6,1.2,6.5,3.5,8.5c2.3,2.1,7.4,4.7,15.3,7.8c10.1,4,17.2,8.6,21.3,13.7
		c4.1,5.1,6.1,11.2,6.1,18.4c0,10.1-3.9,18.2-11.7,24.4c-7.8,6.1-18.3,9.2-31.5,9.2c-4.5,0-9.4-0.5-14.8-1.6
		c-5.4-1.1-10-2.5-13.8-4.1V172c4.6,3.2,9.6,5.8,14.9,7.6c5.3,1.9,10.1,2.8,14.4,2.8c5.7,0,9.9-0.8,12.7-2.4
		c2.7-1.6,4.1-4.3,4.1-8.1c0-3.5-1.4-6.4-4.2-8.8c-2.8-2.4-8.2-5.2-16.1-8.3c-9.3-3.9-16-8.3-19.9-13.2c-3.9-4.9-5.9-11.1-5.9-18.6
		c0-9.7,3.9-17.7,11.6-23.9c7.7-6.2,17.7-9.4,30-9.4c3.8,0,8,0.4,12.7,1.3c4.7,0.8,8.6,1.9,11.7,3.2v24.1c-3.3-2.2-7.3-4.2-11.7-5.8
		c-4.5-1.6-8.9-2.4-13.3-2.4c-4.8,0-8.6,1-11.2,2.8C871.3,114.9,869.9,117.4,869.9,120.7z M926.9,147.8c0-17.8,5-31.9,15.1-42.3
		C952,95.2,966,90,983.8,90c16.8,0,29.9,5,39.4,15c9.4,10,14.2,23.5,14.2,40.5c0,17.4-5,31.3-15.1,41.6c-10,10.3-23.7,15.5-41,15.5
		c-16.7,0-29.9-4.9-39.7-14.7C931.8,178.1,926.9,164.8,926.9,147.8z M953.3,147c0,11.2,2.5,19.8,7.6,25.7c5.1,5.9,12.4,8.9,21.9,8.9
		c9.2,0,16.2-3,21-8.9c4.8-5.9,7.2-14.7,7.2-26.4c0-11.6-2.5-20.3-7.5-26.2c-5-5.9-12-8.8-21-8.8c-9.3,0-16.5,3.1-21.6,9.3
		C955.9,126.7,953.3,135.5,953.3,147z M1121.4,113.2h-37.7V200h-25.6v-86.8h-18V92.5h18v-15c0-11.3,3.7-20.6,11-27.8
		c7.4-7.2,16.8-10.8,28.3-10.8c3.1,0,5.8,0.2,8.2,0.5c2.4,0.3,4.5,0.8,6.3,1.4v21.9c-0.8-0.5-2.3-1.1-4.4-1.8
		c-2.1-0.7-4.5-1.1-7.2-1.1c-5.3,0-9.4,1.7-12.2,5c-2.9,3.3-4.3,8.2-4.3,14.7v13h37.7V68.3l25.4-7.7v31.9h25.6v20.7h-25.6v50.3
		c0,6.6,1.2,11.3,3.6,14c2.4,2.7,6.2,4.1,11.3,4.1c1.5,0,3.2-0.4,5.3-1c2.1-0.7,3.9-1.5,5.4-2.5V199c-1.6,0.9-4.3,1.7-8,2.5
		c-3.7,0.8-7.4,1.1-11,1.1c-10.7,0-18.7-2.8-24-8.5c-5.3-5.7-8-14.2-8-25.7V113.2z"/>
	<rect x="0" y="0" fill-rule="evenodd" clip-rule="evenodd" fill="#F25022" width="118.8" height="118.8"/>
	<rect x="131.2" y="0" fill-rule="evenodd" clip-rule="evenodd" fill="#7FBA00" width="118.8" height="118.8"/>
	<rect y="131.2" fill-rule="evenodd" clip-rule="evenodd" fill="#00A4EF" width="118.8" height="118.8"/>
	<rect x="131.2" y="131.2" fill-rule="evenodd" clip-rule="evenodd" fill="#FFB900" width="118.8" height="118.8"/>
</g>
</svg>
