<svg id="LOGOS" xmlns="http://www.w3.org/2000/svg" viewBox="0 0 328 132"><defs><style>.cls-1{fill:#0e67ed;}.cls-2{fill:#0850c5;}</style></defs><path d="M145,51.68h7.93L140.85,92H129.6l-12-40.29h7.92l9.74,33.58Z"/><path d="M174.91,92h-6l-.55-2a16.12,16.12,0,0,1-8.77,2.6c-5.38,0-7.68-3.69-7.68-8.77,0-6,2.6-8.29,8.59-8.29h7.08V72.43c0-3.26-.91-4.41-5.63-4.41a41.55,41.55,0,0,0-8.17.9l-.9-5.62a38.26,38.26,0,0,1,10.1-1.39c9.25,0,12,3.26,12,10.64Zm-7.38-11.13h-5.45c-2.42,0-3.08.67-3.08,2.91,0,2,.66,3,3,3a11.72,11.72,0,0,0,5.57-1.51Z"/><path d="M189,84.05a3.15,3.15,0,0,0-1.75,2.36c0,.78.48,1.15,1.63,1.27,3.27.36,5.08.54,8.53.9,4.78.55,6.29,2.91,6.29,7.14,0,6.3-2.3,8.78-13.31,8.78A42.82,42.82,0,0,1,179,103l.91-5.5a41.15,41.15,0,0,0,9.92,1.27c5.87,0,7-.42,7-2.36s-.54-2.12-2.78-2.36c-3.39-.36-4.78-.54-8.53-1-4.17-.48-5.81-1.87-5.81-5.62a6.27,6.27,0,0,1,3.09-5c-2.72-1.63-4-4.35-4-7.92V71.71c.12-6.11,3.32-9.8,11.85-9.8a20.27,20.27,0,0,1,5,.6h9.07V66.2c-1,.3-2.24.61-3.27.91a10,10,0,0,1,1,4.6v2.78c0,6-3.63,9.62-11.86,9.62A15.35,15.35,0,0,1,189,84.05Zm1.69-16.21c-3.63,0-4.9,1.33-4.9,4.11v2.24c0,2.9,1.46,4,4.9,4s5-1.15,5-4V72C195.65,69.17,194.38,67.84,190.69,67.84Z"/><path d="M223.3,68.68a57.14,57.14,0,0,0-7.8,4.3V92h-7.38V62.51h6.23l.48,3.27a32.66,32.66,0,0,1,7.74-3.87Z"/><path d="M248,92h-6l-.54-2a16.17,16.17,0,0,1-8.77,2.6c-5.39,0-7.69-3.69-7.69-8.77,0-6,2.6-8.29,8.59-8.29h7.08V72.43c0-3.26-.91-4.41-5.63-4.41a41.45,41.45,0,0,0-8.16.9l-.91-5.62A38.32,38.32,0,0,1,236,61.91c9.26,0,12,3.26,12,10.64ZM240.6,80.84h-5.44c-2.42,0-3.09.67-3.09,2.91,0,2,.67,3,3,3a11.69,11.69,0,0,0,5.57-1.51Z"/><path d="M269.94,92V71.4c0-1.57-.67-2.36-2.36-2.36s-5,1.09-7.68,2.49V92h-7.38V62.51h5.62l.73,2.48a29.59,29.59,0,0,1,11.8-3.08c4.9,0,6.65,3.44,6.65,8.71V92Z"/><path d="M299,91.43a20.68,20.68,0,0,1-6.48,1.15c-5.38,0-8.1-2.54-8.1-7.81V68.38H280V62.51h4.42V55.19l7.38-1v8.35h7.56l-.48,5.87h-7.08V83.81c0,1.57.72,2.6,2.66,2.6a13.92,13.92,0,0,0,3.69-.61Z"/><polygon class="cls-1" points="84.12 41.06 70.16 49.12 70.16 54.08 61.65 74.09 53.14 54.08 53.14 49.12 39.18 41.06 30.68 45.97 30.68 51.67 30.68 51.67 49.6 98 61.65 104.96 61.65 104.96 73.7 98 92.62 51.67 92.62 51.67 92.62 45.97 84.12 41.06"/><polygon class="cls-2" points="92.62 45.97 78.66 54.03 78.66 58.98 67.31 84.33 61.65 87.6 61.65 104.96 73.7 98 92.62 51.67 92.62 51.67 92.62 45.97"/><polygon class="cls-2" points="53.14 54.08 53.14 49.12 44.65 54.03 44.65 58.98 55.99 84.33 61.65 81.06 61.65 74.09 53.14 54.08"/><path d="M125.44,41.81V36.16h-5.17v5.65h-2.64V28.23h2.64v5.69h5.17V28.23h2.64V41.81Zm12.33,0h-2.1l-.19-.66a5.77,5.77,0,0,1-3,.86c-1.86,0-2.66-1.22-2.66-2.91,0-2,.9-2.76,3-2.76h2.45v-1c0-1.08-.31-1.47-2-1.47a15,15,0,0,0-2.83.31l-.31-1.88a13.9,13.9,0,0,1,3.5-.46c3.2,0,4.15,1.09,4.15,3.54Zm-2.56-3.7h-1.89c-.83,0-1.06.22-1.06,1s.23,1,1,1a4.15,4.15,0,0,0,1.93-.5Zm7.91,3.9a12.59,12.59,0,0,1-3.52-.56l.36-1.87a11.94,11.94,0,0,0,3,.42c1.13,0,1.3-.24,1.3-1s-.13-.91-1.78-1.29c-2.5-.59-2.79-1.19-2.79-3.08s.9-2.84,3.81-2.84a14,14,0,0,1,3.06.34l-.25,2a17.61,17.61,0,0,0-2.81-.29c-1.11,0-1.3.25-1.3.85,0,.78.07.84,1.45,1.19,2.85.72,3.12,1.08,3.12,3.1S146.2,42,143.12,42Zm11.71-.2V35c0-.52-.23-.78-.82-.78a7.27,7.27,0,0,0-2.66.82v6.8h-2.56V28l2.56.38v4.34a9.19,9.19,0,0,1,3.73-.95c1.7,0,2.3,1.15,2.3,2.9v7.1Zm4.7-11.19V28.23h2.56v2.39Zm0,11.19V32h2.56v9.8Zm4.6-9.72c0-2.45,1.49-3.88,5-3.88a16.47,16.47,0,0,1,3.79.44l-.29,2.2a20.46,20.46,0,0,0-3.42-.35c-1.82,0-2.41.61-2.41,2v5.15c0,1.43.59,2,2.41,2a21.49,21.49,0,0,0,3.42-.34l.29,2.19a16.47,16.47,0,0,1-3.79.44c-3.48,0-5-1.42-5-3.88ZM178.54,42c-3.5,0-4.44-1.85-4.44-3.86V35.68c0-2,.94-3.87,4.44-3.87S183,33.66,183,35.68v2.47C183,40.16,182,42,178.54,42Zm0-8.11c-1.36,0-1.89.59-1.89,1.69v2.64c0,1.11.53,1.69,1.89,1.69s1.89-.58,1.89-1.69V35.59C180.43,34.49,179.9,33.9,178.54,33.9Zm11.64.17a20.46,20.46,0,0,0-2.7,1.42v6.32h-2.56V32h2.16l.17,1.09a11.54,11.54,0,0,1,2.68-1.29Zm10.22,4.48c0,2.18-1,3.46-3.37,3.46a14.85,14.85,0,0,1-2.73-.28v4l-2.55.38V32h2l.25.83a5.48,5.48,0,0,1,3.23-1c2.05,0,3.14,1.17,3.14,3.4Zm-6.1,1.11a12,12,0,0,0,2.27.26c.92,0,1.28-.42,1.28-1.31V35.15c0-.8-.32-1.25-1.26-1.25a3.74,3.74,0,0,0-2.29.89Z"/></svg>