<?xml version="1.0" encoding="utf-8"?>
<svg xmlns="http://www.w3.org/2000/svg" height="256" width="256" viewBox="0 0 256 256">
  <g>
    <path id="path1" transform="rotate(0,128,128) translate(35,46.625) scale(5.8125,5.8125)  " fill="#04FF93" d="M9.9900246,15.89201L27.17798,15.89201C27.729979,15.89201 28.177977,16.34001 28.177977,16.89201 28.177977,17.44401 27.729979,17.89201 27.17798,17.89201L9.9900246,17.89201C9.4370251,17.89201 8.9900265,17.44401 8.9900265,16.89201 8.9900265,16.34001 9.4370251,15.89201 9.9900246,15.89201z M4.9900112,15.89201L6.1779928,15.89201C6.7299843,15.89201 7.1779776,16.34001 7.1779776,16.89201 7.1779776,17.44401 6.7299843,17.89201 6.1779928,17.89201L4.9900112,17.89201C4.4370198,17.89201 3.9900267,17.44401 3.9900265,16.89201 3.9900267,16.34001 4.4370198,15.89201 4.9900112,15.89201z M9.9900246,10.89201L27.17798,10.89201C27.729979,10.89201 28.177977,11.34001 28.177977,11.89201 28.177977,12.44401 27.729979,12.89201 27.17798,12.89201L9.9900246,12.89201C9.4370251,12.89201 8.9900265,12.44401 8.9900265,11.89201 8.9900265,11.34001 9.4370251,10.89201 9.9900246,10.89201z M4.9900112,10.89201L6.1779928,10.89201C6.7299843,10.89201 7.1779776,11.34001 7.1779776,11.89201 7.1779776,12.44401 6.7299843,12.89201 6.1779928,12.89201L4.9900112,12.89201C4.4370198,12.89201 3.9900267,12.44401 3.9900265,11.89201 3.9900267,11.34001 4.4370198,10.89201 4.9900112,10.89201z M9.9900246,5.8920102L27.17798,5.8920102C27.729979,5.8920102 28.177977,6.3400102 28.177977,6.8920102 28.177977,7.4440103 27.729979,7.8920102 27.17798,7.8920102L9.9900246,7.8920102C9.4370251,7.8920102 8.9900265,7.4440103 8.9900265,6.8920102 8.9900265,6.3400102 9.4370251,5.8920102 9.9900246,5.8920102z M4.9900112,5.8920102L6.1779928,5.8920102C6.7299843,5.8920102 7.1779776,6.3400102 7.1779776,6.8920102 7.1779776,7.4440103 6.7299843,7.8920102 6.1779928,7.8920102L4.9900112,7.8920102C4.4370198,7.8920102 3.9900267,7.4440103 3.9900265,6.8920102 3.9900267,6.3400102 4.4370198,5.8920102 4.9900112,5.8920102z M2,2L2,22 30,22 30,2z M1,0L31,0C31.552002,0,32,0.44799805,32,1L32,23C32,23.552002,31.552002,24,31,24L19,24 19,26 22,26C22.552,26 23,26.448 23,27 23,27.552 22.552,28 22,28L10,28C9.448,28 9,27.552 9,27 9,26.448 9.448,26 10,26L13,26 13,24 1,24C0.44799805,24,0,23.552002,0,23L0,1C0,0.44799805,0.44799805,0,1,0z" />
  </g>
</svg>

