<?xml version="1.0" encoding="utf-8"?>
<svg xmlns="http://www.w3.org/2000/svg" height="256" width="256" viewBox="0 0 256 256">
  <g>
    <path id="path1" transform="rotate(0,128,128) translate(35,35.1683749869617) scale(5.80578659415682,5.80578659415682)  " fill="#04FF93" d="M23.918043,23.181026C24.425001,23.181026 24.839003,23.59399 24.839003,24.101009 24.839003,24.608028 24.425001,25.02203 23.918043,25.02203 23.409986,25.02203 22.997023,24.608028 22.997022,24.101009 22.997023,23.59399 23.409986,23.181026 23.918043,23.181026z M5.032012,20C5.584012,20 6.032012,20.448 6.032012,21 6.032012,21.552 5.584012,22 5.032012,22 4.4800119,22 4.032012,21.552 4.032012,21 4.032012,20.448 4.4800119,20 5.032012,20z M23.918043,19.286983C21.26399,19.286983 19.104017,21.447018 19.104017,24.101009 19.104017,26.755001 21.26399,28.915035 23.918043,28.915035 26.572035,28.915035 28.732008,26.755001 28.732008,24.101009 28.732008,21.447018 26.572035,19.286983 23.918043,19.286983z M23.148024,15.979L24.926039,15.979 24.926039,17.588009 25.083021,17.613033C26.076002,17.791012,26.992994,18.192013,27.780043,18.76202L27.905043,18.856014 29.111036,17.650021 30.367994,18.90704 29.163038,20.111996 29.306044,20.308041C29.820021,21.036007,30.190016,21.871029,30.37599,22.773983L30.43202,23.090023 32.037001,23.090023 32.037001,24.868038 30.464003,24.868038 30.434034,25.103024C30.275038,26.140011,29.872999,27.098995,29.289015,27.918026L29.162001,28.088985 30.367994,29.29504 29.111036,30.551022 27.905043,29.346004 27.895033,29.355038C27.094007,29.963009,26.150038,30.392025,25.124037,30.582027L24.926039,30.61401 24.926039,31.979 23.148024,31.979 23.148024,30.645992 22.914991,30.617001C21.841017,30.452023,20.851027,30.027035,20.013014,29.408993L19.931044,29.345028 18.724013,30.551022 17.466993,29.29504 18.672988,28.088985 18.55702,27.933041C17.950026,27.085995,17.538038,26.090023,17.388014,25.011044L17.372023,24.868038 16.037001,24.868038 16.037001,23.090023 17.405042,23.090023 17.435988,22.895016C17.627028,21.869015,18.056044,20.924984,18.664015,20.12402L18.672988,20.113033 17.466993,18.90704 18.724013,17.650021 19.930006,18.856014 20.099989,18.730038C20.919996,18.145992,21.878004,17.744991,22.914991,17.585995L23.148024,17.556027z M5.032012,12C5.584012,12 6.032012,12.448 6.032012,13 6.032012,13.552 5.584012,14 5.032012,14 4.4800119,14 4.032012,13.552 4.032012,13 4.032012,12.448 4.4800119,12 5.032012,12z M5.032012,3.9689894C5.584012,3.9689894 6.032012,4.4169893 6.032012,4.9689894 6.032012,5.5209894 5.584012,5.9689894 5.032012,5.9689894 4.4800119,5.9689894 4.032012,5.5209894 4.032012,4.9689894 4.032012,4.4169893 4.4800119,3.9689894 5.032012,3.9689894z M2.000001,2L2.000001,8 21,8 21,2z M1.000001,0L22,0C22.552001,0,23,0.44799995,23,1L23,14 21,14 21,10 2.000001,10 2.000001,16 16.000001,16 16.000001,18 2.000001,18 2.000001,24 14,24 14,26 1.000001,26C0.44800091,26,0,25.552,0,25L0,1C0,0.44799995,0.44800091,0,1.000001,0z" />
  </g>
</svg>

