<svg version="1.1" xmlns="http://www.w3.org/2000/svg" xmlns:xlink="http://www.w3.org/1999/xlink" width="1792" height="1063" viewBox="-992 -32 1792 1063" id="ccdiagram"><filter id="grayscale"><feColorMatrix values="0.3333 0.3333 0.3333 0 0 0.3333 0.3333 0.3333 0 0 0.3333 0.3333 0.3333 0 0 0 0 0 1 0"/></filter><defs><style>@import url(https://fonts.googleapis.com/css?family=Open+Sans:400,700|Inconsolata:400);</style></defs><g pointer-events="auto"><g stroke="#818181"><path fill="#fff" stroke-width="2" d="M-320 259L-32 93h64l192 111v37L-64 407h0l-256 148h-64l-128-74v-37l224-129-32-19z"/><path fill="#f5b720" stroke-width="0" d="M-288 278L0 111l192 111-288 167-256 148-128-74 256-148z"/></g><g stroke="#818181"><path fill="#fff" stroke-width="2" d="M-224 629l560-324h64l272 158v37L112 823H48l-272-157z"/><path fill="#e6e7e8" stroke-width="0" d="M-192 648l560-324 272 157L80 805z"/></g></g><g pointer-events="auto"><path stroke="#000" stroke-width="2" stroke-linecap="round" d="M48 435l-96-56" cursor="cell"/><g cursor="cell" stroke="#000"><path stroke-width="2" stroke-linecap="round" d="M352 592v-66"/><path stroke-linejoin="round" d="M352 518l-11 14 11-4 11 4-11-14z"/></g><path stroke="#000" stroke-width="2" stroke-linecap="round" d="M-50 621l226-131M176 268l80 47M-48 287l224-19" cursor="cell"/><g cursor="cell" stroke="#000"><path stroke-width="2" stroke-linecap="round" d="M256 315l-86 49"/><path stroke-linejoin="round" d="M160 370l26-5-14-2-3-8-9 15z"/></g><g cursor="cell" stroke="#000"><path stroke-width="2" stroke-linecap="round" d="M272 472l-122-71"/><path stroke-linejoin="round" d="M141 396l9 15 3-8 13-2-25-5z"/></g><g cursor="cell" stroke="#000"><path stroke-width="2" stroke-linecap="round" d="M112 620l166-96"/><path stroke-linejoin="round" d="M288 518l-26 5 14 2 3 8 9-15z"/></g><path stroke="#000" stroke-width="2" stroke-linecap="round" d="M144 712l208-120M-480 333l256-148" cursor="cell"/><g cursor="cell" stroke="#000"><path stroke-width="2" stroke-linecap="round" d="M176 490l83-16"/><path stroke-linejoin="round" d="M272 472l-27-2 10 5-3 8 20-11z"/></g><path stroke="#000" stroke-width="2" stroke-linecap="round" d="M115 396l-67 39M-704 463l80 46" cursor="cell"/><g cursor="cell" stroke="#000"><path stroke-width="2" stroke-linecap="round" d="M-704 463l179-104"/><path stroke-linejoin="round" d="M-516 354l-25 5 13 2 3 7 9-14z"/></g><g cursor="cell" stroke="#4286c5"><path stroke-width="13" stroke-linecap="round" d="M-352 426l88-51"/><path stroke-linejoin="round" fill="#4286c5" d="M-241 361l-61 13 31 5 8 18 22-36z"/></g><g cursor="cell" stroke="#000"><path stroke-width="2" stroke-linecap="round" d="M-224 185l70 41"/><path stroke-linejoin="round" d="M-144 231l-9-15-3 8-14 2 26 5z"/></g><path stroke="#000" stroke-width="2" stroke-linecap="round" d="M-624 509l64 37" cursor="cell"/><g cursor="cell" stroke="#000"><path stroke-width="2" stroke-linecap="round" d="M-560 546l142-82"/><path stroke-linejoin="round" d="M-408 458l-26 5 13 2 3 8 10-15z"/></g><g cursor="cell" stroke="#000"><path stroke-width="2" stroke-linecap="round" d="M-48 379v-84"/><path stroke-linejoin="round" d="M-48 287l-11 14 11-4 11 4-11-14z"/></g></g><g pointer-events="auto"><g id="5016c387-9817-4c3b-820e-dad1bd3c6f5d"><svg x="-144" y="194" height="111" width="128" fill-rule="evenodd"><path d="M64 74v37l64-37V37L64 74z" fill="#b8b8bb"/><path d="M0 37v37l64 37V74L0 37z" fill="#d2d2d4"/><path d="M0 37L64 0l64 37-64 37L0 37z" fill="#ececed"/><path d="M64 73.407l62.111-35.86.514.889-62.487 36.078h-.276L.743 38.072l.514-.89L64 73.407z" fill="#83838a"/><path d="M63.486 74h1.027v36h-1.027z" fill="#83838a"/><path d="M128 37v37l-64 37L0 74V37L64 0l64 37zM2.054 38.185v34.63L64 108.627l61.946-35.812v-34.63L64 2.373 2.054 38.185z"/></svg><svg x="-86" y="213" width="54" height="36" overflow="visible" cursor="default"><rect transform="scale(1 .578) rotate(45)" width="54" height="36" rx="5" ry="5" fill="#4286c5"/><text transform="scale(1 .578) rotate(45)" font-family="Open Sans" text-anchor="middle" x="50%" font-size="20pt" y="80%" fill="#fff"><tspan>P2</tspan></text></svg></g><svg x="77" y="287" height="115.695" width="100.625" viewBox="0 0 26.624 30.611" id="f11e1cfd-4717-45f2-b009-d1e02991f3be"><g fill-rule="evenodd"><path d="M13.312.306v15l12.99-7.5z" fill="#4286c5" stroke-width=".265"/><path d="M.322 7.806l12.99 7.5v-15z" fill="#26527b" stroke-width=".265"/><path d="M13.312.306v15" fill="none" stroke="#b7d1e9" stroke-width=".265"/><path d="M13.312 15.306l12.99-7.5-6.495 18.75-6.495 3.75z" fill="#26527b" stroke-width=".265"/><path d="M.322 7.806l12.99 7.5v15l-6.495-3.75z" fill="#326ca2" stroke-width=".265"/><path d="M.322 7.806l12.99 7.5 12.99-7.5-12.99 7.5v15" fill="none" stroke="#deeaf5" stroke-width=".265"/><path d="M13.312.306l-12.99 7.5 6.495 18.75 6.495 3.75 6.495-3.75 6.495-18.75z" fill="none" stroke="#000" stroke-width=".529"/></g></svg><svg x="272" y="414" height="113.438" width="96" viewBox="0 0 25.4 30.014" id="ecca8a4c-a1f6-45bd-8706-ee51a1e1ec94"><g transform="translate(412.599 -86.957)"><g fill-rule="evenodd"><path d="M-412.333 102.348v4.786l8.29 4.785h8.289l8.29-4.785v-4.786l-8.29-4.786h-8.29z" fill="#3c3c3c"/><path d="M-395.754 111.92l8.29-4.786v4.785l-8.29 4.786z" fill="#090909"/><path d="M-404.044 111.92h8.29v4.785h-8.29z" fill="#232323"/><path d="M-412.333 107.134v4.785l8.29 4.786v-4.786z" fill="#232323"/><path d="M-412.333 107.134l8.29 4.785h8.289l8.29-4.785m-16.58 4.786v4.785m8.29-4.785v4.785" fill="none" stroke="#a2a2a2" stroke-width=".266"/><path d="M-412.333 102.348v9.571l8.29 4.786h8.289l8.29-4.786v-9.571l-8.29-4.786h-8.29z" fill="none" stroke="#000" stroke-width=".532"/></g><path d="M-412.333 97.178v4.786l8.29 4.786h8.289l8.29-4.786v-4.786l-8.29-4.786h-8.29z" fill="#3c3c3c" fill-rule="evenodd" stroke-width=".332"/><path d="M-395.754 106.75l8.29-4.786v4.786l-8.29 4.786z" fill="#090909" fill-rule="evenodd" stroke-width=".332"/><path d="M-404.044 106.75h8.29v4.786h-8.29z" fill="#232323" fill-rule="evenodd" stroke-width=".332"/><path d="M-412.333 101.964v4.786l8.29 4.786v-4.786z" fill="#232323" fill-rule="evenodd" stroke-width=".332"/><path d="M-412.333 101.964l8.29 4.786h8.289l8.29-4.786m-16.58 4.786v4.786m8.29-4.786v4.786" fill="none" fill-rule="evenodd" stroke="#a2a2a2" stroke-width=".266"/><path d="M-412.333 97.178v9.572l8.29 4.786h8.289l8.29-4.786v-9.572l-8.29-4.786h-8.29z" fill="none" fill-rule="evenodd" stroke="#000" stroke-width=".532"/><path d="M-412.333 92.01v4.785l8.29 4.786h8.289l8.29-4.786v-4.786l-8.29-4.786h-8.29z" fill="#3c3c3c" fill-rule="evenodd" stroke-width=".332"/><path d="M-395.754 101.58l8.29-4.785v4.786l-8.29 4.786z" fill="#090909" fill-rule="evenodd" stroke-width=".332"/><path d="M-404.044 101.58h8.29v4.787h-8.29z" fill="#232323" fill-rule="evenodd" stroke-width=".332"/><path d="M-412.333 96.795v4.786l8.29 4.786v-4.786z" fill="#232323" fill-rule="evenodd" stroke-width=".332"/><path d="M-412.333 96.795l8.29 4.786h8.289l8.29-4.786m-16.58 4.785v4.787m8.29-4.787v4.787" fill="none" fill-rule="evenodd" stroke="#a2a2a2" stroke-width=".266"/><path d="M-412.333 92.01v9.57l8.29 4.787h8.289l8.29-4.786v-9.572l-8.29-4.786h-8.29z" fill="none" fill-rule="evenodd" stroke="#000" stroke-width=".532"/><circle cx="-136.478" cy="325.284" fill="#f4b934" r="5.801" stroke-width=".286" transform="scale(1.22475 .7071) rotate(45)"/><g style="line-height:0%"><path d="M-399.242 93.57l.48-.601q.222-.275.177-.448-.04-.17-.467-.416l-.507-.293 1.065-.614.937.541q.825.476.92.934.1.46-.417 1.114l-3.452 4.39-1.622-.937 1.654-2.121-3.729.923-1.622-.936z" fill="#fff" font-family="Droid Serif" font-size="9.971" stroke-width=".266" style="line-height:1.25"/></g></g></svg><svg x="-286" y="280" height="108.05" width="123" viewBox="0 0 32.544 28.588" id="d2c2216b-6fc5-49ad-82dd-56f4f10d199d"><path d="M10.115 6.02v14.218l7.873-4.318V1.474z" fill="#b8b8bb" fill-rule="evenodd" stroke="#83838a" stroke-width=".268"/><path d="M.265 2.228l9.85 3.791v14.219l-9.85-8.531z" fill="#d2d2d4" fill-rule="evenodd" stroke="#83838a" stroke-width=".265"/><path d="M10.115 6.02l7.873-4.546L3.548.332.265 2.228z" fill="#ececed" fill-rule="evenodd" stroke="#83838a" stroke-width=".265"/><path d="M.265 11.707l9.85 8.53 7.873-4.317V1.474L3.392.271.265 2.076z" fill="none" fill-rule="evenodd" stroke="#000" stroke-width=".529"/><path d="M22.429 3.65L14.22 8.39l14.828 10.397 3.231-1.866z" fill="#ececed" fill-rule="evenodd" stroke="#83838a" stroke-width=".268"/><path d="M14.22 8.39v14.22l14.777 5.687.051-9.509z" fill="#d2d2d4" fill-rule="evenodd" stroke="#83838a" stroke-width=".265"/><path d="M29.048 18.787l3.231-1.866V26.4l-3.282 1.897z" fill="#b8b8bb" fill-rule="evenodd" stroke="#83838a" stroke-width=".265"/><path d="M22.429 3.65L14.22 8.39v14.22l14.777 5.687 3.282-1.897v-9.478z" fill="none" fill-rule="evenodd" stroke="#000" stroke-width=".529"/><g fill="#4286c5" stroke="#4286c5"><path class="cls-1" d="M35.31 38.19H14.69a1 1 0 01-1-1V21.25a1 1 0 011-1h20.62a1 1 0 011 1v15.94a1 1 0 01-1 1zm-19.62-2h18.62V22.26H15.69z" transform="matrix(.15911 .09186 0 .18372 17.66 13.039)"/><path class="cls-1" d="M24 29.27h2v5.04h-2zm7.61-8.22h-2v-4.46a5 5 0 00-1.35-3.42 4.45 4.45 0 00-3.26-1.4v0a4.71 4.71 0 00-4.63 4.76v4.51h-2v-4.51A6.7 6.7 0 0125 9.77v0a6.45 6.45 0 014.68 2 6.9 6.9 0 011.9 4.8z" transform="matrix(.15911 .09186 0 .18372 17.66 13.039)"/><path class="cls-1" d="M25 48.5A23.5 23.5 0 1148.5 25 23.52 23.52 0 0125 48.5zm0-45A21.5 21.5 0 1046.5 25 21.52 21.52 0 0025 3.5z" transform="matrix(.15911 .09186 0 .18372 17.66 13.039)"/><path class="cls-1" d="M25 31.16a3.35 3.35 0 113.34-3.35A3.35 3.35 0 0125 31.16zm0-4.69a1.35 1.35 0 101.34 1.34A1.34 1.34 0 0025 26.47z" transform="matrix(.15911 .09186 0 .18372 17.66 13.039)"/></g></svg><svg x="2" y="576" height="108.05" width="123" viewBox="0 0 32.544 28.588" id="cc367f18-c490-438a-b425-d5001c093b9b"><path d="M10.115 6.02v14.218l7.873-4.318V1.474z" fill="#090909" fill-rule="evenodd" stroke="#a2a2a2" stroke-width=".268"/><path d="M.265 2.228l9.85 3.791v14.219l-9.85-8.531z" fill="#232323" fill-rule="evenodd" stroke="#a2a2a2" stroke-width=".265"/><path d="M10.115 6.02l7.873-4.546L3.548.332.265 2.228z" fill="#3c3c3c" fill-rule="evenodd" stroke="#a2a2a2" stroke-width=".265"/><path d="M.265 11.707l9.85 8.53 7.873-4.317V1.474L3.392.271.265 2.076z" fill="none" fill-rule="evenodd" stroke="#000" stroke-width=".529"/><path d="M22.429 3.65L14.22 8.39l14.828 10.397 3.231-1.866z" fill="#3c3c3c" fill-rule="evenodd" stroke="#a2a2a2" stroke-width=".268"/><path d="M14.22 8.39v14.22l14.777 5.687.051-9.509z" fill="#232323" fill-rule="evenodd" stroke="#a2a2a2" stroke-width=".265"/><path d="M29.048 18.787l3.231-1.866V26.4l-3.282 1.897z" fill="#090909" fill-rule="evenodd" stroke="#a2a2a2" stroke-width=".265"/><path d="M22.429 3.65L14.22 8.39v14.22l14.777 5.687 3.282-1.897v-9.478z" fill="none" fill-rule="evenodd" stroke="#000" stroke-width=".529"/><path d="M21.09 20.43q.163.375.048.64t-.44.265q-.326 0-.671-.265-.346-.265-.509-.64-.162-.374-.047-.639t.44-.265q.326 0 .671.265.346.265.509.64zm1.573-1.808q.08.184.022.318-.059.134-.218.134-.16 0-.335-.134-.176-.135-.255-.318-.082-.187-.024-.32.058-.132.22-.132.163 0 .336.132.173.133.254.32zm1.573 3.617q.08.184.021.318-.058.134-.218.134t-.335-.134q-.175-.135-.255-.318-.081-.187-.023-.32.057-.132.22-.132t.335.132q.173.133.255.32zm-1.826-1.487l-.284-.654q-.016-.035-.052-.068-.036-.034-.065-.038l-.513-.084q-.088-.124-.215-.269.03-.17.1-.406.006-.035-.01-.07-.018-.043-.05-.068-.117-.106-.39-.316-.275-.21-.333-.21-.034 0-.054.025l-.215.317q-.143-.067-.284-.11-.2-.38-.309-.547-.058-.085-.129-.085h-.571q-.034 0-.05.027-.016.026-.004.062l.164.54q-.089.036-.182.11l-.5-.315q-.032-.024-.071-.024-.034 0-.053.028-.238.47-.196.565.014.032.05.067.053.05.208.187.155.138.238.216-.003.155.018.29l-.43.084q-.029.004-.038.034-.008.03.008.069l.285.653q.015.036.051.069.036.033.065.037l.513.085q.088.124.215.268-.03.17-.1.407-.005.038.01.07.018.043.052.07.113.107.388.315.275.208.333.209.034 0 .054-.025l.215-.318q.132.064.286.113.2.382.307.544.058.085.129.085h.571q.034 0 .05-.027.016-.026.004-.062l-.164-.54q.089-.035.183-.11l.499.315q.035.024.072.024.033 0 .052-.028.238-.47.196-.565-.014-.032-.05-.067-.062-.057-.212-.19-.15-.135-.23-.213-.004-.169-.022-.29l.431-.08q.028-.007.036-.038.008-.03-.008-.068zm1.147-1.883l-.215-.494q-.025-.057-.505-.11-.079-.095-.172-.183-.017-.4-.056-.488-.006-.014-.023-.024-.483-.251-.49-.251-.024 0-.069.166-.044.166-.055.24-.064-.007-.095-.007t-.09.007q-.075-.074-.264-.24-.188-.166-.213-.166-.006 0-.272.25-.008.011-.002.025.039.088.369.488-.017.088-.012.183-.435.053-.41.11l.215.494q.024.057.505.11.084.102.172.184.017.399.055.487.006.014.023.025l.138.07.234.12q.11.057.117.057.024 0 .07-.164.045-.164.056-.239.064.007.095.007.03 0 .089-.007.266.251.455.396l.021.007q.012 0 .273-.247.008-.01.002-.025-.038-.088-.368-.487.017-.082.012-.184.435-.053.41-.11zm1.572 3.617l-.215-.494q-.024-.057-.505-.11-.078-.095-.172-.184-.017-.399-.055-.487-.006-.014-.023-.025-.484-.25-.49-.25-.025 0-.069.165-.044.166-.055.24-.065-.006-.096-.006-.03 0-.089.007-.075-.075-.264-.24-.189-.166-.213-.166-.006 0-.272.25-.008.01-.002.025.038.088.369.487-.017.088-.013.184-.434.053-.41.11l.215.494q.025.057.505.11.085.102.173.183.016.4.055.488.006.014.023.024l.138.07.233.121q.111.057.117.057.025 0 .07-.165.045-.164.056-.238.065.007.095.007.031 0 .09-.007.265.25.454.396l.022.007q.012 0 .273-.248.008-.01.002-.024-.038-.088-.369-.488.017-.08.013-.183.434-.053.41-.11z" fill="#f4b934" stroke-width=".265"/></svg><svg x="-142" y="525" height="148.981" width="91.956" viewBox="0 0 24.33 39.418" id="91c285e1-c385-48fc-a922-473ac64bef07"><g transform="translate(240.35 -115.335)"><path d="M-240.082 146.018v4.445l6.973 4.025v-4.445z" fill="#d2d2d4" fill-rule="evenodd" stroke-width=".214"/><path d="M-233.11 150.043l9.858-.003v4.445l-9.857.003z" fill="#d2d2d4" fill-rule="evenodd" stroke-width=".214"/><path d="M-223.252 150.04l6.967-4.027v4.445l-6.967 4.028z" fill="#b8b8bb" fill-rule="evenodd" stroke-width=".214"/><path d="M-223.252 150.04v4.445" fill="none" fill-rule="evenodd" stroke="#83838a" stroke-width=".267"/><path d="M302.99-2468.894l-36.732 47.87-59.823 7.876-47.87-36.732-7.875-59.823 36.732-47.87 59.822-7.876 47.87 36.732z" fill="#848586" stroke="#83838a" stroke-width="2.151" transform="matrix(.0995 .07485 -.12957 .05747 -573.282 269.258)"/><path d="M-240.082 139.12v4.445l6.973 4.025v-4.445z" fill="#d2d2d4" fill-rule="evenodd" stroke-width=".214"/><path d="M-233.11 143.145l9.858-.003v4.445l-9.857.003z" fill="#d2d2d4" fill-rule="evenodd" stroke-width=".214"/><path d="M-223.252 143.143l6.967-4.028v4.445l-6.967 4.028z" fill="#b8b8bb" fill-rule="evenodd" stroke-width=".214"/><path d="M302.99-2468.894l-36.732 47.87-59.823 7.876-47.87-36.732-7.875-59.823 36.732-47.87 59.822-7.876 47.87 36.732z" fill="#848586" stroke="#83838a" stroke-width="2.151" transform="matrix(.0995 .07485 -.12957 .05747 -573.282 262.36)"/><path d="M-240.082 132.222v4.445l6.973 4.025v-4.445z" fill="#d2d2d4" fill-rule="evenodd" stroke-width=".214"/><path d="M-233.11 136.247l9.858-.003v4.445l-9.857.003z" fill="#d2d2d4" fill-rule="evenodd" stroke-width=".214"/><path d="M-223.252 136.245l6.967-4.028v4.445l-6.967 4.028z" fill="#b8b8bb" fill-rule="evenodd" stroke-width=".214"/><path d="M302.99-2468.894l-36.732 47.87-59.823 7.876-47.87-36.732-7.875-59.823 36.732-47.87 59.822-7.876 47.87 36.732z" fill="#848586" stroke="#83838a" stroke-width="2.151" transform="matrix(.0995 .07485 -.12957 .05747 -573.282 255.462)"/><path d="M-240.082 125.324v4.445l6.973 4.025v-4.445z" fill="#d2d2d4" fill-rule="evenodd" stroke-width=".214"/><path d="M-233.11 129.349l9.858-.003v4.445l-9.857.003z" fill="#d2d2d4" fill-rule="evenodd" stroke-width=".214"/><path d="M-223.252 129.347l6.967-4.028v4.445l-6.967 4.028z" fill="#b8b8bb" fill-rule="evenodd" stroke-width=".214"/><path d="M-223.252 129.347l-9.857.002-6.973-4.025-.003-5.694 6.967-4.028 9.857-.002 6.973 4.025.003 5.694z" fill="#ececed" stroke-width="2.151"/><path d="M-240.082 125.324l6.964 4.074 9.866-.053 6.967-4.026m-16.833 4.079l.008 4.396m9.858-4.449v4.445" fill="none" fill-rule="evenodd" stroke="#83838a" stroke-width=".267"/><path d="M-240.085 119.63l.003 10.139 6.972 4.025 9.857-.003 6.966-4.027-.002-10.14-6.972-4.025-9.857.003z" fill="none" fill-rule="evenodd" stroke="#000" stroke-width=".529"/><path d="M-223.252 136.242v4.446m-9.858-4.441v4.445" fill="none" fill-rule="evenodd" stroke="#83838a" stroke-width=".267"/><path d="M-240.082 132.222v4.445l6.973 4.025 9.857-.003 6.966-4.027.002-4.446-6.968 4.026-9.865.054z" fill="none" fill-rule="evenodd" stroke="#000" stroke-width=".529"/><path d="M-233.11 143.145v4.445m9.858-4.449v4.446" fill="none" fill-rule="evenodd" stroke="#83838a" stroke-width=".267"/><path d="M-240.082 139.12v4.445l6.973 4.025 9.857-.003 6.966-4.026.002-4.446-6.968 4.028-9.857.003z" fill="none" fill-rule="evenodd" stroke="#000" stroke-width=".529"/><path d="M-240.082 146.018v4.445l6.973 4.025 9.857-.003 6.967-4.026v-4.445l-6.967 4.026-9.857.003z" fill="none" fill-rule="evenodd" stroke="#000" stroke-width=".529"/><path d="M-233.11 150.043v4.445" fill="none" fill-rule="evenodd" stroke="#83838a" stroke-width=".267"/><circle cx="-9.268" cy="254.217" fill="#4286c5" r="5.832" stroke-width=".534" transform="scale(1.22475 .7071) rotate(45)"/><path d="M-227.78 122.24q.75.433 1.536.73.788.298 1.43.362l-.538.31q-.218.127-.73.046-.513-.08-1.181-.34-.669-.26-1.327-.64-.657-.38-1.108-.766-.45-.386-.59-.681-.138-.296.08-.422l.537-.31q.111.37.626.825.516.454 1.265.887zm-2.428 1.403q.749.432 1.536.73.788.297 1.43.361l-.538.31q-.218.127-.73.046-.513-.08-1.182-.34-.668-.26-1.326-.64-.657-.38-1.108-.766-.45-.386-.59-.681-.139-.296.08-.422l.537-.31q.11.37.626.825.516.454 1.265.887zm1.214-.701q.749.432 1.536.73.788.297 1.43.361l-.538.31q-.218.126-.73.046-.513-.08-1.181-.34-.669-.26-1.327-.64-.657-.38-1.108-.766-.45-.386-.59-.681-.138-.296.08-.422l.537-.31q.111.37.626.825.516.454 1.265.887zm3.642-2.103q.657.38 1.108.766.45.386.59.681.139.296-.08.422l-.404.234q-.218.126-.73.045-.513-.08-1.181-.34-.67-.26-1.327-.64-.657-.38-1.108-.766-.45-.386-.59-.681-.139-.296.08-.422l.404-.234q.218-.126.73-.045.513.08 1.182.34.668.26 1.326.64z" fill="#fff" stroke-width=".267"/></g></svg><g id="bea2609c-8c8c-41da-a121-7afb5f7cc176"><svg x="16" y="675" height="111" width="128" fill-rule="evenodd"><path d="M64 74v37l64-37V37L64 74z" fill="#b8b8bb"/><path d="M0 37v37l64 37V74L0 37z" fill="#d2d2d4"/><path d="M0 37L64 0l64 37-64 37L0 37z" fill="#ececed"/><path d="M64 73.407l62.111-35.86.514.889-62.487 36.078h-.276L.743 38.072l.514-.89L64 73.407z" fill="#83838a"/><path d="M63.486 74h1.027v36h-1.027z" fill="#83838a"/><path d="M128 37v37l-64 37L0 74V37L64 0l64 37zM2.054 38.185v34.63L64 108.627l61.946-35.812v-34.63L64 2.373 2.054 38.185z"/></svg><svg x="74" y="694" width="54" height="36" overflow="visible" cursor="default"><rect transform="scale(1 .578) rotate(45)" width="54" height="36" rx="5" ry="5" fill="#4286c5"/><text transform="scale(1 .578) rotate(45)" font-family="Open Sans" text-anchor="middle" x="50%" font-size="20pt" y="80%" fill="#fff"><tspan>M2</tspan></text></svg></g></g><g pointer-events="auto"><svg x="-352" y="426" overflow="visible" id="921bc68c-d570-435c-9f6c-0159c7b688e6"><g transform="scale(1.397 .808) rotate(-45)"><circle fill="transparent" r="40"/><svg width="100" height="100" x="-50" y="-50"><svg id="Layer_1" data-name="Layer 1" xmlns="http://www.w3.org/2000/svg" width="100" height="100" viewBox="0 0 100 100"><path fill="#4b612c" d="M17.5 26.24h65v14h-65zm0 18H48v14H17.5zm34.37 0h30.5v14h-30.5zm-34.37 18h19v14h-19zm23 0h19v14h-19zm23 0h19v14h-19z"/><path fill="#759c3e" d="M17.5 23.76h65v14h-65zm0 18H48v14H17.5zm34.37 0h30.5v14h-30.5zm-34.37 18h19v14h-19zm23 0h19v14h-19zm23 0h19v14h-19z"/></svg></svg></g></svg><svg x="-480" y="333" overflow="visible" id="a053ebef-6f97-4372-971f-be96c536edaa"><g transform="scale(2.183 1.263) rotate(-45)"><circle fill="#f44336" r="23"/><svg width="27" height="32" x="-13.5" y="-16" fill="#fff"><svg xmlns="http://www.w3.org/2000/svg" width="27" height="32" viewBox="0 0 27 32"><path d="M10.393 23.357c0 .964-.875 1.179-1.661 1.179-.768 0-1.911-.125-1.911-1.125 0-.982.964-1.143 1.75-1.143.75 0 1.821.125 1.821 1.089zm-.643-8.321c0 .893-.357 1.518-1.321 1.518-.982 0-1.375-.571-1.375-1.5s.357-1.607 1.375-1.607c.911 0 1.321.75 1.321 1.589zm2.964-1.34v-2.232c-.768.286-1.589.518-2.411.518a3.94 3.94 0 00-1.964-.518c-2.036 0-3.643 1.5-3.643 3.571 0 1.107.732 2.643 1.839 3.018v.054c-.571.25-.679.946-.679 1.518 0 .589.214 1.071.732 1.375v.054c-1.214.393-2.018 1.161-2.018 2.482 0 2.268 2.161 2.911 4.054 2.911 2.286 0 4-.839 4-3.357 0-1.786-1.625-2.321-3.107-2.589-.5-.089-1.357-.446-1.357-1.071 0-.589.321-.839.875-.929 1.821-.357 2.982-1.768 2.982-3.643 0-.321-.071-.625-.179-.929.286-.071.589-.143.875-.232zm1.054 7.483h2.446c-.036-.482-.036-.982-.036-1.464v-6.911c0-.411 0-.821.036-1.232h-2.446c.054.411.054.857.054 1.268v7c0 .446 0 .893-.054 1.339zm9.089-.286v-2.161a2.12 2.12 0 01-1.214.375c-.804 0-.946-.804-.946-1.464v-4.018h.929c.321 0 .625.036.946.036v-2.089h-1.875c0-.607-.036-1.214.054-1.821h-2.5c.054.321.071.643.071.982v.839h-1.071v2.089c.214-.018.429-.054.661-.054.125 0 .268.018.411.018v.036h-.036v3.875c0 1.929.286 3.786 2.643 3.786.661 0 1.339-.107 1.929-.429zM16.5 8.286c0-.839-.625-1.625-1.5-1.625s-1.518.768-1.518 1.625c0 .839.661 1.589 1.518 1.589s1.5-.768 1.5-1.589zm10.929-.857v17.143a5.145 5.145 0 01-5.143 5.143H5.143A5.145 5.145 0 010 24.572V7.429a5.145 5.145 0 015.143-5.143h17.143a5.145 5.145 0 015.143 5.143z"/></svg></svg></g></svg><svg x="-624" y="509" overflow="visible" id="98cb660e-faf8-478a-910a-34170e46797e"><g transform="scale(2.73 1.579) rotate(45)"><circle fill="#fff" r="23"/><svg width="30" height="32" x="-15" y="-16" fill="#ff9800"><svg xmlns="http://www.w3.org/2000/svg" width="30" height="32" viewBox="0 0 30 32"><path d="M21.446 22.107c0-3.161-.768-6.679-3.946-6.679-.982.571-2.321 1.554-3.786 1.554S10.91 16 9.928 15.428c-3.179 0-3.946 3.518-3.946 6.679 0 1.768 1.161 3.036 2.589 3.036h10.286c1.429 0 2.589-1.268 2.589-3.036zM18.357 11.5c0-2.571-2.089-4.643-4.643-4.643S9.071 8.928 9.071 11.5c0 2.554 2.089 4.625 4.643 4.625s4.643-2.071 4.643-4.625zm11.357 9.643v3.429c0 .321-.25.571-.571.571h-1.714v4A2.866 2.866 0 0124.572 32H2.858a2.866 2.866 0 01-2.857-2.857V2.857A2.866 2.866 0 012.858 0h21.714a2.866 2.866 0 012.857 2.857v4h1.714c.321 0 .571.25.571.571v3.429c0 .321-.25.571-.571.571h-1.714v2.286h1.714c.321 0 .571.25.571.571v3.429c0 .321-.25.571-.571.571h-1.714v2.286h1.714c.321 0 .571.25.571.571z"/></svg></svg></g></svg></g><g pointer-events="auto"><svg x="-416" y="500" overflow="visible" id="b618e326-db78-41f1-8ecd-1977cc08194c"><text stroke="#fff" stroke-width="4" font-family="Open Sans" y="36.5" font-size="25pt" font-weight="bold" transform="scale(1 .578) rotate(-45)"><tspan x="8" dy="0">CloudFormation</tspan><tspan x="8" dy="1.1em">Template</tspan></text><text font-family="Open Sans" y="36.5" font-size="25pt" font-weight="bold" transform="scale(1 .578) rotate(-45)"><tspan x="8" dy="0">CloudFormation</tspan><tspan x="8" dy="1.1em">Template</tspan></text></svg><svg x="48" y="46" overflow="visible" id="fa4ad915-1121-4c61-9af1-82df27044568"><text stroke="#fff" stroke-width="4" font-family="Open Sans" y="46.76" font-size="34pt" font-weight="bold" transform="scale(1 .578) rotate(45)"><tspan x="8" dy="0">Model Creation</tspan></text><text font-family="Open Sans" y="46.76" font-size="34pt" font-weight="bold" transform="scale(1 .578) rotate(45)"><tspan x="8" dy="0">Model Creation</tspan></text></svg><svg x="416" y="259" overflow="visible" id="37ef9cbe-293b-4653-b98e-82c124ad97bc"><text stroke="#fff" stroke-width="4" font-family="Open Sans" y="46.76" font-size="34pt" font-weight="bold" transform="scale(1 .578) rotate(45)"><tspan x="8" dy="0">Model Deployment</tspan></text><text font-family="Open Sans" y="46.76" font-size="34pt" font-weight="bold" transform="scale(1 .578) rotate(45)"><tspan x="8" dy="0">Model Deployment</tspan></text></svg><svg x="-192" y="185" overflow="visible" id="e99df68b-9707-4a18-86da-0cc1ebf8ab0a"><text stroke="#fff" stroke-width="4" font-family="Open Sans" y="30.8" font-size="20pt" fill="#03a9f4" font-weight="bold" transform="scale(1 .578) rotate(-45)"><tspan x="8" dy="0">Temporary Stack</tspan></text><text font-family="Open Sans" y="30.8" font-size="20pt" fill="#03a9f4" font-weight="bold" transform="scale(1 .578) rotate(-45)"><tspan x="8" dy="0">Temporary Stack</tspan></text></svg><svg x="176" y="398" overflow="visible" id="b733cae5-a482-4b50-b768-c7ba6e7b80de"><text stroke="#fff" stroke-width="4" font-family="Open Sans" y="30.8" font-size="20pt" fill="#03a9f4" font-weight="bold" transform="scale(1 .578) rotate(-45)"><tspan x="8" dy="0">Deployed Stack</tspan></text><text font-family="Open Sans" y="30.8" font-size="20pt" fill="#03a9f4" font-weight="bold" transform="scale(1 .578) rotate(-45)"><tspan x="8" dy="0">Deployed Stack</tspan></text></svg><svg x="-48" y="583" overflow="visible" id="ea8bec75-1904-49eb-a3dd-9d1f988054b2"><text stroke="#fff" stroke-width="4" font-family="Open Sans" y="30.8" font-size="20pt" font-weight="bold" transform="scale(1 .578) rotate(-45)"><tspan x="8" dy="0">DynamoDB System</tspan></text><text font-family="Open Sans" y="30.8" font-size="20pt" font-weight="bold" transform="scale(1 .578) rotate(-45)"><tspan x="8" dy="0">DynamoDB System</tspan></text></svg><svg x="96" y="592" overflow="visible" id="dbdf5a1d-aaa2-40d2-86a8-7b3fb9988d30"><text stroke="#fff" stroke-width="4" font-family="Open Sans" y="30.8" font-size="20pt" font-weight="bold" transform="scale(1 .578) rotate(-45)"><tspan x="8" dy="0">API Gateway</tspan></text><text font-family="Open Sans" y="30.8" font-size="20pt" font-weight="bold" transform="scale(1 .578) rotate(-45)"><tspan x="8" dy="0">API Gateway</tspan></text></svg><svg x="128" y="685" overflow="visible" id="a57e2e32-ece8-4415-b8ac-e54fd5ee21f3"><text stroke="#fff" stroke-width="4" font-family="Open Sans" y="30.8" font-size="20pt" font-weight="bold" transform="scale(1 .578) rotate(-45)"><tspan x="8" dy="0">Microservice Call</tspan></text><text font-family="Open Sans" y="30.8" font-size="20pt" font-weight="bold" transform="scale(1 .578) rotate(-45)"><tspan x="8" dy="0">Microservice Call</tspan></text></svg><svg x="368" y="472" overflow="visible" id="dd0e4424-7336-491b-b57c-8cb5872c5764"><text stroke="#fff" stroke-width="4" font-family="Open Sans" y="30.8" font-size="20pt" fill="#3f51b5" font-weight="bold"><tspan x="8" dy="0">Lambda fetches</tspan><tspan x="8" dy="1.1em">trained model during</tspan><tspan x="8" dy="1.1em">warm-up</tspan></text><text font-family="Open Sans" y="30.8" font-size="20pt" fill="#3f51b5" font-weight="bold"><tspan x="8" dy="0">Lambda fetches</tspan><tspan x="8" dy="1.1em">trained model during</tspan><tspan x="8" dy="1.1em">warm-up</tspan></text></svg><svg x="-32" y="167" overflow="visible" id="4bcd0b98-70b9-4fed-a671-1ea648196b0a"><text stroke="#fff" stroke-width="4" font-family="Open Sans" y="30.8" font-size="20pt" fill="#3f51b5" font-weight="bold"><tspan x="8" dy="0">spot instance</tspan><tspan x="8" dy="1.1em">trains model</tspan></text><text font-family="Open Sans" y="30.8" font-size="20pt" fill="#3f51b5" font-weight="bold"><tspan x="8" dy="0">spot instance</tspan><tspan x="8" dy="1.1em">trains model</tspan></text></svg><svg x="192" y="222" overflow="visible" id="72e62d07-7449-4feb-8ac9-bd14e77c3ce6"><text stroke="#fff" stroke-width="4" font-family="Open Sans" y="30.8" font-size="20pt" font-weight="bold"><tspan x="8" dy="0">trained model</tspan><tspan x="8" dy="1.1em">saved to S3</tspan></text><text font-family="Open Sans" y="30.8" font-size="20pt" font-weight="bold"><tspan x="8" dy="0">trained model</tspan><tspan x="8" dy="1.1em">saved to S3</tspan></text></svg><svg x="-176" y="398" overflow="visible" id="76231108-07fb-48df-bf1c-fe7be4608577"><text stroke="#fff" stroke-width="4" font-family="Open Sans" y="30.8" font-size="20pt" fill="#3f51b5" font-weight="bold"><tspan x="8" dy="0">spot instance</tspan><tspan x="8" dy="1.1em">fetches data</tspan></text><text font-family="Open Sans" y="30.8" font-size="20pt" fill="#3f51b5" font-weight="bold"><tspan x="8" dy="0">spot instance</tspan><tspan x="8" dy="1.1em">fetches data</tspan></text></svg><svg x="-624" y="231" overflow="visible" id="cd952b09-f9a2-4d79-9125-affc54ededa9"><text stroke="#fff" stroke-width="4" font-family="Open Sans" y="30.8" font-size="20pt" fill="#3f51b5" font-weight="bold"><tspan x="8" dy="0">spot instance pulls</tspan><tspan x="8" dy="1.1em">model training logic</tspan></text><text font-family="Open Sans" y="30.8" font-size="20pt" fill="#3f51b5" font-weight="bold"><tspan x="8" dy="0">spot instance pulls</tspan><tspan x="8" dy="1.1em">model training logic</tspan></text></svg><svg x="-880" y="379" overflow="visible" id="2500db3c-36d3-4ef3-b0b4-6390dc746a33"><text stroke="#fff" stroke-width="4" font-family="Open Sans" y="30.8" font-size="20pt" fill="#3f51b5" font-weight="bold"><tspan x="8" dy="0">data cleaning/analysis,</tspan><tspan x="8" dy="1.1em">create model infrastructure</tspan></text><text font-family="Open Sans" y="30.8" font-size="20pt" fill="#3f51b5" font-weight="bold"><tspan x="8" dy="0">data cleaning/analysis,</tspan><tspan x="8" dy="1.1em">create model infrastructure</tspan></text></svg><svg x="-576" y="555" overflow="visible" id="8ca95d5c-771e-446d-bd8d-a1bb6aaeb1bb"><text stroke="#fff" stroke-width="4" font-family="Open Sans" y="30.8" font-size="20pt" fill="#3f51b5" font-weight="bold"><tspan x="8" dy="0">launch Deep Learning AMI</tspan><tspan x="8" dy="1.1em">on GPU Spot Instance</tspan></text><text font-family="Open Sans" y="30.8" font-size="20pt" fill="#3f51b5" font-weight="bold"><tspan x="8" dy="0">launch Deep Learning AMI</tspan><tspan x="8" dy="1.1em">on GPU Spot Instance</tspan></text></svg><svg x="208" y="694" overflow="visible" id="f507d843-a75d-4ee3-b2ae-3e76c0b9e9db"><text stroke="#fff" stroke-width="4" font-family="Open Sans" y="30.8" font-size="20pt" fill="#3f51b5" font-weight="bold"><tspan x="8" dy="0">Lambda serves predictions</tspan><tspan x="8" dy="1.1em">using model to API or worker</tspan><tspan x="8" dy="1.1em">callers</tspan></text><text font-family="Open Sans" y="30.8" font-size="20pt" fill="#3f51b5" font-weight="bold"><tspan x="8" dy="0">Lambda serves predictions</tspan><tspan x="8" dy="1.1em">using model to API or worker</tspan><tspan x="8" dy="1.1em">callers</tspan></text></svg><svg x="-480" y="389" overflow="visible" id="ab629ba2-ca07-4e1a-ae91-954acd658a51"><text stroke="#fff" stroke-width="4" font-family="Open Sans" y="30.8" font-size="20pt" font-weight="bold" transform="scale(1 .578) rotate(-45)"><tspan x="8" dy="0">Git Repo</tspan></text><text font-family="Open Sans" y="30.8" font-size="20pt" font-weight="bold" transform="scale(1 .578) rotate(-45)"><tspan x="8" dy="0">Git Repo</tspan></text></svg><svg x="-736" y="500" overflow="visible" id="aeafb69b-9e0d-42d4-84a5-01ff6f9cf2f4"><text stroke="#fff" stroke-width="4" font-family="Open Sans" y="30.8" font-size="20pt" font-weight="bold" transform="scale(1 .578) rotate(45)"><tspan x="8" dy="0">Data Scientist/</tspan><tspan x="8" dy="1.1em">Engineer</tspan></text><text font-family="Open Sans" y="30.8" font-size="20pt" font-weight="bold" transform="scale(1 .578) rotate(45)"><tspan x="8" dy="0">Data Scientist/</tspan><tspan x="8" dy="1.1em">Engineer</tspan></text></svg></g></svg>