<svg version="1.1" id="Layer_1" xmlns="http://www.w3.org/2000/svg" xmlns:xlink="http://www.w3.org/1999/xlink" x="0px" y="0px" viewBox="0 0 100 100" xml:space="preserve"><desc>Copyright Opto 22</desc> <svg><g>
	<g id="linear">
		<linearGradient class="linear" id="SVGID_1_" gradientUnits="userSpaceOnUse" x1="57.435" y1="40" x2="57.435" y2="70">
			<stop offset="0" style="stop-color:#CCCCCC"></stop>
			<stop offset="1" style="stop-color:#333333"></stop>
		</linearGradient>
		<path class="linear" fill="url(#SVGID_1_)" d="M25.908,59.758c-5.352-8.353-5.352-21.896,0-30.249h63.054c5.352,8.353,5.352,21.896,0,30.249
			H25.908z"></path>
	</g>
	<g id="shape">
		<rect x="14.469" y="43.093" fill="#808080" width="5.801" height="2.628"></rect>
		<path fill="#808080" d="M3.321,52.7c0-0.793,0.134-1.555,0.378-2.266h-3.55v9.063h7.432v-0.368
			C5.077,58.069,3.321,55.589,3.321,52.7z"></path>
		<rect x="29.514" y="67.11" fill="#808080" width="10.151" height="4.35"></rect>
		<path fill="#808080" d="M84.263,48.621v12.734H30.608V48.621h-2.9v11.073H6.964v2.447h20.744v3.428v11.692h2.9v-1.224h53.655
			v1.224h2.9V65.57v-3.625V48.621H84.263z M84.263,73.5H30.608v-9.652h53.655V73.5z"></path>
		<path fill="#808080" d="M71.205,63.666v1.45H52.897v-1.45h-1.813v1.45h-8.157c-1.199,0-2.175-0.976-2.175-2.175V33.939h15.272
			c1.399,0,2.538-1.138,2.538-2.538v-4.169h-1.45v4.169c0,0.6-0.488,1.088-1.088,1.088H38.486c-0.6,0-1.088-0.488-1.088-1.088
			v-4.169h-1.45v4.169c0,1.399,1.138,2.538,2.538,2.538h0.816v29.003c0,1.999,1.626,3.625,3.625,3.625h8.157v1.269h1.813v-1.269
			h18.308v1.269h1.813v-4.169L71.205,63.666L71.205,63.666z"></path>
	</g>
	<g id="dark">
		<rect x="34.429" y="28.32" fill="#666666" width="4.579" height="1.189"></rect>
		<path fill="#666666" d="M50.178,69.104c0-0.399-0.326-0.725-0.725-0.725h-3.988c-0.399,0-0.725-0.326-0.725-0.725v-0.181
			c0-0.399-0.326-0.725-0.725-0.725h-3.807c-0.399,0-0.725,0.326-0.725,0.725v5.801c0,0.399,0.326,0.725,0.725,0.725h3.807
			c0.399,0,0.725-0.326,0.725-0.725v-0.181c0-0.399,0.326-0.725,0.725-0.725h3.988c0.399,0,0.725-0.326,0.725-0.725V69.104z"></path>
		<rect x="55.366" y="28.32" fill="#666666" width="4.58" height="1.189"></rect>
		<polygon fill="#666666" points="80.881,28.32 80.094,28.32 80.094,27.413 77.089,27.413 77.089,28.32 76.302,28.32 76.302,29.509 
			80.881,29.509 		"></polygon>
		<path fill="#666666" d="M89.331,64.301v1.56H78.44c-0.955,1.941-0.955,5.089,0,7.031h10.892v1.56h1.45V64.301H89.331
			L89.331,64.301z"></path>
		<circle fill="#666666" cx="10.3" cy="52.7" r="3.807"></circle>
		<circle fill="#666666" cx="63.143" cy="45.132" r="8.36"></circle>
		<path fill="#666666" d="M56.558,23.934c-1.722,0-3.117,1.396-3.117,3.117s1.395,3.117,3.117,3.117
			c1.721,0,3.117-1.396,3.117-3.117S58.28,23.934,56.558,23.934z M58.861,26.661h-1.225c-0.116-0.32-0.369-0.573-0.688-0.688v-1.225
			C57.926,24.912,58.696,25.683,58.861,26.661z M56.168,24.748v1.225c-0.32,0.116-0.573,0.369-0.688,0.688h-1.225
			C54.42,25.683,55.19,24.912,56.168,24.748z M54.255,27.44h1.225c0.116,0.32,0.369,0.573,0.688,0.688v1.225
			C55.19,29.189,54.42,28.418,54.255,27.44z M56.948,29.353v-1.225c0.32-0.116,0.573-0.369,0.688-0.688h1.225
			C58.696,28.418,57.926,29.189,56.948,29.353z"></path>
		<path fill="#666666" d="M33.713,64.844c-2.403,0-4.35,1.948-4.35,4.35s1.948,4.35,4.35,4.35s4.35-1.948,4.35-4.35
			S36.116,64.844,33.713,64.844z M36.927,68.651h-1.71c-0.162-0.446-0.514-0.799-0.961-0.961v-1.71
			C35.622,66.21,36.697,67.286,36.927,68.651z M33.169,65.981v1.71c-0.446,0.161-0.799,0.514-0.961,0.961h-1.71
			C30.729,67.286,31.804,66.21,33.169,65.981z M30.499,69.739h1.71c0.161,0.446,0.514,0.799,0.961,0.961v1.71
			C31.804,72.179,30.729,71.104,30.499,69.739z M34.257,72.409v-1.71c0.446-0.161,0.799-0.514,0.961-0.961h1.71
			C36.697,71.104,35.622,72.179,34.257,72.409z"></path>
	</g>
	<g id="light">
		<path fill="#B3B3B3" d="M21.913,45.721H10.3c-3.854,0-6.979,3.124-6.979,6.979s3.124,6.979,6.979,6.979s6.979-3.124,6.979-6.979
			c0-0.53-0.061-1.045-0.173-1.541h5.443C22.186,49.389,21.972,47.56,21.913,45.721z M10.3,56.506c-2.102,0-3.807-1.704-3.807-3.807
			c0-2.102,1.704-3.807,3.807-3.807s3.807,1.704,3.807,3.807C14.106,54.802,12.402,56.506,10.3,56.506z"></path>
		<path fill="#B3B3B3" d="M6.855,52.7c0,1.902,1.542,3.444,3.444,3.444v-6.888c1.902,0,3.444,1.542,3.444,3.444H6.855z"></path>
		<circle fill="#B3B3B3" cx="63.143" cy="45.132" r="7.997"></circle>
		<rect x="23.577" y="48.621" fill="#B3B3B3" width="10.876" height="13.776"></rect>
		<rect x="93.594" y="51.332" fill="#B3B3B3" width="1.269" height="1.269"></rect>
	</g>
	<g id="shadow">
		<polygon fill="#333333" points="62.812,38.756 62.481,38.183 62.812,37.61 63.474,37.61 63.805,38.183 63.474,38.756 		"></polygon>
		<polygon fill="#333333" points="62.812,52.668 62.481,52.095 62.812,51.522 63.474,51.522 63.805,52.095 63.474,52.668 		"></polygon>
		<polygon fill="#333333" points="55.856,45.712 55.525,45.139 55.856,44.566 56.518,44.566 56.849,45.139 56.518,45.712 		"></polygon>
		<polygon fill="#333333" points="69.768,45.712 69.437,45.139 69.768,44.566 70.43,44.566 70.76,45.139 70.43,45.712 		"></polygon>
		<polygon fill="#333333" points="67.73,40.794 67.399,40.221 67.73,39.647 68.392,39.647 68.723,40.221 68.392,40.794 		"></polygon>
		<polygon fill="#333333" points="57.893,50.631 57.563,50.057 57.893,49.484 58.555,49.484 58.886,50.057 58.555,50.631 		"></polygon>
		<polygon fill="#333333" points="58.555,40.794 58.886,40.221 58.555,39.647 57.893,39.647 57.563,40.221 57.894,40.794 		"></polygon>
		<polygon fill="#333333" points="68.392,50.631 68.723,50.057 68.392,49.484 67.73,49.484 67.399,50.057 67.73,50.631 		"></polygon>
		<path opacity="0.5" fill="#333333" enable-background="new    " d="M63.143,53.492c-4.617,0-8.36-3.743-8.36-8.36l0,0v1.813
			c0,4.617,3.743,10.173,8.36,10.173s8.36-5.556,8.36-10.173v-1.812C71.503,49.749,67.76,53.492,63.143,53.492z"></path>
		<path fill="#333333" d="M77.769,68.425H58.698c-0.999,0-1.813-0.813-1.813-1.813v-6.933H54.71v6.933
			c0,2.199,1.789,3.988,3.988,3.988h19.104C77.713,69.887,77.7,69.144,77.769,68.425z"></path>
		<path fill="#333333" d="M79.271,27.64h-1.45v-1.292c0-1.512,1.626-2.742,3.625-2.742h9.879v1.45h-9.879
			c-1.282,0-2.175,0.681-2.175,1.292V27.64z"></path>
		<path fill="#333333" d="M83.078,66.023h-2.175V63.78c0-1.837,1.789-3.331,3.988-3.331h10.604c0.999,0,1.813-0.813,1.813-1.813
			V47.579c0-1-0.813-1.813-1.813-1.813h-3.082v-2.175h3.082c2.199,0,3.988,1.789,3.988,3.988v11.057
			c0,2.199-1.789,3.988-3.988,3.988H84.891c-1.068,0-1.813,0.609-1.813,1.156C83.078,63.78,83.078,66.023,83.078,66.023z"></path>
		<path fill="#333333" d="M88.878,65.751h-1.722v-1.45h1.722c1.199,0,2.175-0.976,2.175-2.175V25.057h1.45v37.069
			C92.504,64.125,90.877,65.751,88.878,65.751z"></path>
		<path fill="#333333" d="M91.779,54.875c-1.001,0-1.813-0.812-1.813-1.813v-3.444c0-1.001,0.812-1.813,1.813-1.813
			c1.001,0,1.813,0.812,1.813,1.813v3.444C93.591,54.063,92.78,54.875,91.779,54.875z"></path>
		<circle fill="#333333" cx="59.229" cy="27.051" r="0.855"></circle>
		<circle fill="#333333" cx="33.139" cy="55.237" r="0.634"></circle>
		<rect x="27.52" y="49.528" fill="#333333" width="5.438" height="3.082"></rect>
		<path fill="#333333" d="M23.305,52.972c-0.2,0-0.363-0.162-0.363-0.363v-3.082c0-0.2,0.162-0.363,0.363-0.363
			s0.363,0.162,0.363,0.363v3.082C23.668,52.809,23.506,52.972,23.305,52.972z"></path>
		<path fill="#333333" d="M23.305,61.401c-0.2,0-0.363-0.162-0.363-0.363v-3.082c0-0.2,0.162-0.363,0.363-0.363
			s0.363,0.162,0.363,0.363v3.082C23.668,61.238,23.506,61.401,23.305,61.401z"></path>
		<path fill="#333333" d="M6.159,63.279c-0.581,0-1.098-0.12-1.532-0.399c-0.867-0.558-1.289-1.659-1.289-3.366h0.725
			c0,1.421,0.322,2.348,0.956,2.756c1.367,0.88,4.291-0.45,7.12-1.736c2.476-1.126,5.036-2.29,7.059-2.29h4.396v0.725h-4.396
			c-1.866,0-4.354,1.131-6.759,2.224C10.099,62.258,7.854,63.279,6.159,63.279z"></path>
		<path fill="#333333" d="M43.474,66.84l0.719-0.094c-0.008-0.061-0.017-0.12-0.025-0.18h-0.732
			C43.449,66.657,43.462,66.746,43.474,66.84z"></path>
		<path fill="#333333" d="M43.601,63.848H42.84c0.127,0.377,0.241,0.797,0.343,1.269h0.74C43.827,64.65,43.719,64.23,43.601,63.848z
			"></path>
		<path fill="#333333" d="M34.555,58.049l0.069,0.722c0.032-0.003,2.747-0.242,4.679,0.776v-0.808
			C37.231,57.81,34.686,58.036,34.555,58.049z"></path>
		<path fill="#333333" d="M40.752,59.701v0.992c0.23,0.221,0.447,0.439,0.646,0.663h0.944C41.893,60.771,41.363,60.26,40.752,59.701
			z"></path>
		<circle fill="#333333" cx="95.782" cy="51.884" r="1.134"></circle>
		<rect x="89.15" y="23.335" fill="#333333" width="3.263" height="1.994"></rect>
		<circle fill="#333333" cx="37.44" cy="69.195" r="1.193"></circle>
	</g>
	<g id="hlight">
		<circle fill="#CCCCCC" cx="95.782" cy="51.884" r="0.74"></circle>
		<rect x="59.246" y="42.775" fill="#CCCCCC" width="7.794" height="4.713"></rect>
		<circle fill="#CCCCCC" cx="33.713" cy="69.195" r="0.816"></circle>
		<circle fill="#CCCCCC" cx="56.558" cy="27.051" r="0.584"></circle>
	</g>
</g></svg></svg>