<svg xmlns="http://www.w3.org/2000/svg" viewBox="0 0 736 660" width="736" height="660"><defs><clipPath id="a"><path d="M288 94h112v56H288z"/></clipPath><clipPath id="b"><path d="M86 94h81.5v56H86z"/></clipPath><clipPath id="c"><path d="M186.5 94H268v56h-81.5z"/></clipPath><clipPath id="d"><path d="M175.75 210h134v56h-134z"/></clipPath><clipPath id="e"><path d="M289 385h112v56H289z"/></clipPath><clipPath id="f"><path d="M87 385h81.5v56H87z"/></clipPath><clipPath id="g"><path d="M187.5 385H269v56h-81.5z"/></clipPath><clipPath id="h"><path d="M176.75 501h134v56h-134z"/></clipPath><clipPath id="i"><path d="M523.5 222h167v87h-167z"/></clipPath></defs><g fill="none"><title>logmanagement Kubernetes</title><path fill="#fff" d="M0 0h736v660H0z"/><title>Layer 1</title><title>zone internal - blue</title><path fill="#e1f6fe" d="M45.5 54H440v251.5H45.5z"/><path stroke="#fff" stroke-linecap="round" stroke-linejoin="round" stroke-width="2" d="M45.5 54H440v251.5H45.5z"/><text transform="translate(55.5 69)" fill="#757575"><tspan font-family="Roboto" font-size="11" font-weight="400" x="0" y="10">Node 1</tspan></text><title>zone internal - green</title><path fill="#e2f3ec" d="M45.5 344.5H440V596H45.5z"/><path stroke="#fff" stroke-linecap="round" stroke-linejoin="round" stroke-width="2" d="M45.5 344.5H440V596H45.5z"/><text transform="translate(55.5 359.5)" fill="#757575"><tspan font-family="Roboto" font-size="10" font-weight="400" x="0" y="9">Node 2</tspan></text><path fill="#fff" d="M288 94h112v56H288z"/><path stroke="#dfdfdf" stroke-linecap="round" stroke-linejoin="round" stroke-width="2" clip-path="url(#a)" d="M288 94h112v56H288z"/><text transform="translate(312 115)" fill="#212121"><tspan font-family="Roboto" font-size="12" font-weight="400" x=".049" y="11">Fluentd pod</tspan></text><path fill="#fff" d="M86 94h81.5v56H86z"/><path stroke="#dfdfdf" stroke-linecap="round" stroke-linejoin="round" stroke-width="2" clip-path="url(#b)" d="M86 94h81.5v56H86z"/><text transform="translate(111 115)" fill="#212121"><tspan font-family="Roboto" font-size="12" font-weight="400" x=".048" y="11">Pod A</tspan></text><text transform="translate(350.726 202.505)" fill="#757575"><tspan font-family="Roboto" font-size="10" font-weight="400" x="0" y="9">reads logs</tspan></text><text transform="translate(180.5 191.211)" fill="#757575"><tspan font-family="Roboto" font-size="10" font-weight="400" x="0" y="9">writes logs</tspan></text><path fill="#fff" d="M186.5 94H268v56h-81.5z"/><path stroke="#dfdfdf" stroke-linecap="round" stroke-linejoin="round" stroke-width="2" clip-path="url(#c)" d="M186.5 94H268v56h-81.5z"/><text transform="translate(211.5 115)" fill="#212121"><tspan font-family="Roboto" font-size="12" font-weight="400" x=".227" y="11">Pod B</tspan></text><path fill="#fff" d="M175.75 210h134v56h-134z"/><path stroke="#dfdfdf" stroke-linecap="round" stroke-linejoin="round" stroke-width="2" clip-path="url(#d)" d="M175.75 210h134v56h-134z"/><text transform="translate(200.75 231)" fill="#212121"><tspan font-family="Roboto" font-size="12" font-weight="400" x=".381" y="11">Host filesystem</tspan></text><path fill="#fff" d="M289 385h112v56H289z"/><path stroke="#dfdfdf" stroke-linecap="round" stroke-linejoin="round" stroke-width="2" clip-path="url(#e)" d="M289 385h112v56H289z"/><text transform="translate(313 406)" fill="#212121"><tspan font-family="Roboto" font-size="12" font-weight="400" x=".049" y="11">Fluentd pod</tspan></text><path fill="#fff" d="M87 385h81.5v56H87z"/><path stroke="#dfdfdf" stroke-linecap="round" stroke-linejoin="round" stroke-width="2" clip-path="url(#f)" d="M87 385h81.5v56H87z"/><text transform="translate(112 406)" fill="#212121"><tspan font-family="Roboto" font-size="12" font-weight="400" x=".057" y="11">Pod C</tspan></text><text transform="translate(351.726 493.505)" fill="#757575"><tspan font-family="Roboto" font-size="10" font-weight="400" x="0" y="9">reads logs</tspan></text><text transform="translate(181.5 480.211)" fill="#757575"><tspan font-family="Roboto" font-size="10" font-weight="400" x="0" y="9">writes logs</tspan></text><path fill="#fff" d="M187.5 385H269v56h-81.5z"/><path stroke="#dfdfdf" stroke-linecap="round" stroke-linejoin="round" stroke-width="2" clip-path="url(#g)" d="M187.5 385H269v56h-81.5z"/><text transform="translate(212.5 406)" fill="#212121"><tspan font-family="Roboto" font-size="12" font-weight="400" x=".027" y="11">Pod D</tspan></text><path fill="#fff" d="M176.75 501h134v56h-134z"/><path stroke="#dfdfdf" stroke-linecap="round" stroke-linejoin="round" stroke-width="2" clip-path="url(#h)" d="M176.75 501h134v56h-134z"/><text transform="translate(201.75 522)" fill="#212121"><tspan font-family="Roboto" font-size="12" font-weight="400" x=".381" y="11">Host filesystem</tspan></text><title>Data Loss Prevention API</title><path fill="#fff" d="M523.5 222h167v87h-167z"/><path stroke="#dfdfdf" stroke-linecap="round" stroke-linejoin="round" stroke-width="2" clip-path="url(#i)" d="M523.5 222h167v87h-167z"/><path fill="#dfdfdf" d="M543.147 270h127.706v1H543.147z"/><text transform="translate(543.147 277.5)" fill="#757575"><tspan font-family="Roboto" font-size="10" font-weight="400" x="25" y="9">Cloud Logging or</tspan> <tspan font-family="Roboto" font-size="10" font-weight="400" x="34.073" y="20">Elasticsearch</tspan></text><text transform="translate(539.147 241)" fill="#212121"><tspan font-family="Roboto" font-size="12" font-weight="400" x=".181" y="11">Log Management Service</tspan></text><g><text transform="translate(469 270.005)" fill="#757575"><tspan font-family="Roboto" font-size="10" font-weight="400" x="0" y="9">sends logs</tspan></text></g><g><path d="M127 150v19.5a.5.5 0 0 0 .5.5h99.75a.5.5 0 0 0 .5-.5V150a.5.5 0 0 0-1 0v19.5l.5-.5H127.5l.5.5V150a.5.5 0 0 0-1 0z" fill="#616161"/></g><g><path d="M182 169.5v18.602a.5.5 0 0 0 .5.5h60.25l-.5-.5V200.1a.5.5 0 0 0 1 0v-11.998a.5.5 0 0 0-.5-.5H182.5l.5.5V169.5a.5.5 0 0 0-1 0zm61.25 38.6v-8h-1v8zm3.146-4.354l-4 4h.708l-4-4-.708.708 4 4 .354.353.354-.353 4-4z" fill="#616161"/></g><g><path d="M309.753 238.208l33.199-.177H344a.5.5 0 0 0 .5-.5V159.9a.5.5 0 0 0-1 0v77.631l.5-.5h-1.05l-33.203.177a.5.5 0 1 0 .006 1zM343.5 151.9v8h1v-8zm-3.146 4.354l4-4h-.708l4 4 .708-.708-4-4-.354-.353-.354.353-4 4z" fill="#616161"/></g><g><path d="M400 122.5h61.5l-.5-.5v291l.5-.5H401a.5.5 0 0 0 0 1h60.5a.5.5 0 0 0 .5-.5V122a.5.5 0 0 0-.5-.5H400a.5.5 0 0 0 0 1z" fill="#616161"/></g><g><path d="M462 265.5h51.6a.5.5 0 0 0 0-1H462a.5.5 0 0 0 0 1zm59.6-1h-8v1h8zm-4.354-3.146l4 4v-.708l-4 4 .708.708 4-4 .353-.354-.353-.354-4-4z" fill="#616161"/></g><g><path d="M128 441v19.5a.5.5 0 0 0 .5.5h99.75a.5.5 0 0 0 .5-.5V441a.5.5 0 0 0-1 0v19.5l.5-.5H128.5l.5.5V441a.5.5 0 0 0-1 0z" fill="#616161"/></g><g><path d="M310.753 529.207l33.199-.176H345a.5.5 0 0 0 .5-.5V450.9a.5.5 0 0 0-1 0v77.631l.5-.5h-1.05l-33.203.177a.5.5 0 1 0 .006 1zM344.5 442.9v8h1v-8zm-3.146 4.354l4-4h-.708l4 4 .708-.708-4-4-.354-.353-.354.353-4 4z" fill="#616161"/></g><g><path d="M183 460.5v18.602a.5.5 0 0 0 .5.5h60.25l-.5-.5V491.1a.5.5 0 0 0 1 0v-11.998a.5.5 0 0 0-.5-.5H183.5l.5.5V460.5a.5.5 0 0 0-1 0zm61.25 38.6v-8h-1v8zm3.146-4.354l-4 4h.708l-4-4-.708.708 4 4 .354.353.354-.353 4-4z" fill="#616161"/></g></g></svg>
