<?xml version="1.0" encoding="utf-8"?>
<svg xmlns="http://www.w3.org/2000/svg" height="256" width="256" viewBox="0 0 256 256">
  <g>
    <path id="path1" transform="rotate(0,128,128) translate(35,71.328125) scale(5.8125,5.8125)  " fill="#04FF93" d="M20.5,15L21.400024,15C20.800018,15.800003 20,16.399994 19.100006,16.899994 19.600006,16.399994 20.100006,15.699997 20.5,15z M18.300018,15L19.900024,15C19.300018,16.100006 18.400024,17 17.400024,17.300003 17.800018,16.800003 18.100006,15.899994 18.300018,15z M14.700012,15L17.800018,15C17.400024,16.600006 16.800018,17.5 16.300018,17.5 15.600006,17.5 15,16.600006 14.700012,15z M12.5,15L14.100006,15C14.300018,16 14.600006,16.800003 15,17.300003 14,16.899994 13.100006,16.100006 12.5,15z M11,15L11.900024,15C12.300018,15.699997 12.700012,16.399994 13.300018,16.899994 12.400024,16.399994 11.600006,15.800003 11,15z M21.400024,11.399994L22.800018,11.399994C22.700012,12.5,22.400024,13.5,21.800018,14.399994L20.800018,14.399994C21.100006,13.600006,21.300018,12.5,21.400024,11.399994z M18.700012,11.399994L20.800018,11.399994C20.700012,12.5,20.5,13.5,20.100006,14.399994L18.400024,14.399994C18.600006,13.5,18.700012,12.5,18.700012,11.399994z M14.200012,11.399994L18.200012,11.399994C18.200012,12.5,18.100006,13.600006,17.900024,14.399994L14.600006,14.399994C14.400024,13.600006,14.200012,12.600006,14.200012,11.399994z M11.600006,11.399994L13.700012,11.399994C13.700012,12.399994,13.800018,13.5,14,14.399994L12.300018,14.399994C11.900024,13.600006,11.600006,12.5,11.600006,11.399994z M9.7000122,11.399994L11,11.399994C11.100006,12.5,11.300018,13.5,11.700012,14.399994L10.700012,14.399994C10.100006,13.600006,9.7000122,12.5,9.7000122,11.399994z M20.900024,7.8999939L22,7.8999939C22.5,8.8000031,22.800018,9.8000031,22.800018,10.899994L21.400024,10.899994C21.400024,9.8000031,21.200012,8.8000031,20.900024,7.8999939z M18.5,7.8999939L20.300018,7.8999939C20.600006,8.8000031,20.800018,9.8000031,20.800018,10.899994L18.700012,10.899994C18.700012,9.8999939,18.600006,8.8999939,18.5,7.8999939z M14.5,7.8999939L18,7.8999939C18.100006,8.8000031,18.200012,9.8000031,18.200012,10.899994L14.200012,10.899994C14.200012,9.8000031,14.300018,8.8000031,14.5,7.8999939z M12.100006,7.8999939L13.900024,7.8999939C13.700012,8.8999939,13.700012,9.8999939,13.700012,10.899994L11.600006,10.899994C11.5,9.8000031,11.700012,8.8000031,12.100006,7.8999939z M10.400024,7.8999939L11.5,7.8999939C11.200012,8.8000031,11,9.8000031,11,10.899994L9.6000061,10.899994C9.6000061,9.8000031,9.9000244,8.8000031,10.400024,7.8999939z M19.100006,5.1000061C20.200012,5.6000061,21.100006,6.3999939,21.700012,7.3999939L20.700012,7.3999939C20.300018,6.5,19.700012,5.6999969,19.100006,5.1000061z M13.300018,5.1000061C12.700012,5.6999969,12.100006,6.5,11.700012,7.3999939L10.700012,7.3999939C11.400024,6.3999939,12.300018,5.6000061,13.300018,5.1000061z M17.400024,4.6000061C18.5,5,19.5,6,20.100006,7.3999939L18.400024,7.3999939C18.200012,6.1999969,17.800018,5.1999969,17.400024,4.6000061z M15,4.6000061C14.600006,5.1999969,14.200012,6.1999969,14,7.3999939L12.300018,7.3999939C12.900024,6,13.900024,5,15,4.6000061z M16.200012,4.3999939C16.800018,4.3999939,17.5,5.5,17.800018,7.3999939L14.5,7.3999939C14.900024,5.5,15.600006,4.3999939,16.200012,4.3999939z M16.200012,3.8999939C12.300018,3.8999939 9.1000061,7.1000061 9.1000061,11 9.1000061,12.5 9.5,13.800003 10.300018,15L10.400024,15C11.700012,16.899994 13.800018,18.100006 16.200012,18.100006 18.600006,18.100006 20.800018,16.899994 22,15L22.100006,15 22.100006,14.899994C22.900024,13.800003 23.300018,12.399994 23.300018,10.899994 23.300018,7.1000061 20.100006,3.8999939 16.200012,3.8999939z M15.900024,0C19.5,0 22.600006,2.6999969 23.600006,6.5 24.200012,6.3000031 24.800018,6.1999969 25.400024,6.1999969 29.100006,6.1999969 32,9.1999969 32,12.800003 32,15.199997 30.800018,17.199997 28.900024,18.399994 28.200012,19 27.200012,19.399994 26.200012,19.399994 25.900024,19.399994 25.700012,19.5 25.400024,19.5 25.100006,19.5 24.900024,19.5 24.600006,19.399994L7.5,19.399994C7.2000122,19.399994 7,19.5 6.7000122,19.5 3,19.5 0,16.699997 0,13.199997 0,9.6999969 3,6.8000031 6.6000061,6.8000031 7.1000061,6.8000031 7.6000061,6.8999939 8.1000061,7 9,3 12.100006,0 15.900024,0z" />
  </g>
</svg>

