<svg version="1.1" id="Layer_1" xmlns="http://www.w3.org/2000/svg" xmlns:xlink="http://www.w3.org/1999/xlink" x="0px" y="0px" viewBox="0 0 100 100" xml:space="preserve"><desc>Copyright Opto 22</desc> <svg><g>
	<g id="shape">
		<g fill="#999">
			<path fill="#B3B3B3" d="M46.64,13.608c0.064-0.006,0.129-0.009,0.194-0.015l-0.105-1.197c-0.064,0.005-0.129,0.009-0.194,0.015
				L46.64,13.608z"></path>
			<path fill="#B3B3B3" d="M43.464,14.033c0.064-0.011,0.127-0.023,0.191-0.034l-0.209-1.183c-0.064,0.011-0.128,0.023-0.191,0.034
				L43.464,14.033z"></path>
			<path fill="#B3B3B3" d="M40.336,14.729c0.063-0.017,0.124-0.036,0.187-0.053l-0.311-1.161c-0.063,0.017-0.124,0.036-0.187,0.053
				L40.336,14.729z"></path>
			<path fill="#B3B3B3" d="M56.22,13.999c0.064,0.011,0.128,0.023,0.191,0.034l0.209-1.183c-0.064-0.011-0.127-0.023-0.191-0.034
				L56.22,13.999z"></path>
			<path fill="#B3B3B3" d="M37.279,15.693c0.061-0.022,0.123-0.042,0.184-0.064L37.052,14.5c-0.061,0.022-0.123,0.041-0.184,0.064
				L37.279,15.693z"></path>
			<path fill="#B3B3B3" d="M59.353,14.676c0.063,0.017,0.124,0.036,0.187,0.053l0.311-1.161c-0.063-0.017-0.124-0.036-0.187-0.053
				L59.353,14.676z"></path>
			<path fill="#B3B3B3" d="M49.84,12.254v1.201c0.033,0,0.065-0.002,0.097-0.002s0.065,0.002,0.097,0.002v-1.201
				c-0.033,0-0.065-0.002-0.097-0.002S49.873,12.254,49.84,12.254z"></path>
			<path fill="#B3B3B3" d="M53.042,13.593c0.064,0.005,0.129,0.009,0.193,0.015l0.105-1.197c-0.064-0.006-0.129-0.009-0.194-0.015
				L53.042,13.593z"></path>
			<path fill="#B3B3B3" d="M28.792,20.158c0.053-0.037,0.105-0.076,0.158-0.113l-0.689-0.984c-0.053,0.037-0.105,0.075-0.158,0.113
				L28.792,20.158z"></path>
			<path fill="#B3B3B3" d="M34.324,16.934c0.058-0.028,0.118-0.053,0.177-0.08l-0.508-1.089c-0.059,0.027-0.118,0.052-0.177,0.08
				L34.324,16.934z"></path>
			<path fill="#B3B3B3" d="M21.738,26.652c0.042-0.05,0.086-0.098,0.128-0.147l-0.92-0.772c-0.042,0.05-0.086,0.097-0.128,0.147
				L21.738,26.652z"></path>
			<path fill="#B3B3B3" d="M19.796,29.201c0.037-0.053,0.075-0.105,0.113-0.158l-0.984-0.689c-0.037,0.053-0.076,0.105-0.113,0.158
				L19.796,29.201z"></path>
			<path fill="#B3B3B3" d="M16.604,34.751c0.027-0.059,0.052-0.118,0.08-0.177l-1.089-0.508c-0.027,0.058-0.053,0.118-0.08,0.177
				L16.604,34.751z"></path>
			<path fill="#B3B3B3" d="M18.08,31.907c0.032-0.056,0.064-0.112,0.097-0.168l-1.041-0.601c-0.033,0.056-0.065,0.112-0.097,0.168
				L18.08,31.907z"></path>
			<path fill="#B3B3B3" d="M31.488,18.427c0.056-0.033,0.112-0.065,0.168-0.097l-0.601-1.04c-0.056,0.032-0.112,0.064-0.168,0.097
				L31.488,18.427z"></path>
			<path fill="#B3B3B3" d="M26.255,22.115c0.05-0.042,0.097-0.086,0.147-0.128l-0.772-0.92c-0.05,0.042-0.098,0.086-0.147,0.127
				L26.255,22.115z"></path>
			<path fill="#B3B3B3" d="M62.412,15.63c0.061,0.022,0.123,0.042,0.184,0.064l0.411-1.129c-0.061-0.022-0.123-0.042-0.184-0.064
				L62.412,15.63z"></path>
			<path fill="#B3B3B3" d="M81.698,31.739c0.033,0.056,0.065,0.112,0.097,0.168l1.041-0.601c-0.032-0.056-0.064-0.112-0.097-0.168
				L81.698,31.739z"></path>
			<path fill="#B3B3B3" d="M65.375,16.855c0.059,0.027,0.118,0.052,0.177,0.08l0.508-1.089c-0.058-0.027-0.118-0.053-0.177-0.08
				L65.375,16.855z"></path>
			<path fill="#B3B3B3" d="M87.714,46.785l-1.197,0.105c0.006,0.064,0.009,0.129,0.015,0.194l1.197-0.105
				C87.723,46.914,87.72,46.849,87.714,46.785z"></path>
			<path fill="#B3B3B3" d="M86.092,43.714c0.011,0.064,0.023,0.127,0.034,0.191l1.183-0.209c-0.011-0.064-0.023-0.128-0.034-0.191
				L86.092,43.714z"></path>
			<path fill="#B3B3B3" d="M23.895,24.283c0.046-0.046,0.092-0.092,0.138-0.138l-0.85-0.85c-0.046,0.046-0.092,0.092-0.138,0.138
				L23.895,24.283z"></path>
			<path fill="#B3B3B3" d="M13.203,50.188c0-0.033,0.002-0.065,0.002-0.097h-1.202c0,0.033-0.002,0.065-0.002,0.097
				c0,0.033,0.002,0.065,0.002,0.097h1.202C13.205,50.253,13.203,50.221,13.203,50.188z"></path>
			<path fill="#B3B3B3" d="M75.98,76.093c-0.046,0.046-0.091,0.091-0.137,0.137l0.85,0.85c0.046-0.046,0.091-0.091,0.137-0.137
				L75.98,76.093z"></path>
			<path fill="#B3B3B3" d="M86.672,50.188c0,0.033-0.002,0.065-0.002,0.097h1.202c0-0.033,0.002-0.065,0.002-0.097
				c0-0.033-0.002-0.065-0.002-0.097H86.67C86.67,50.123,86.672,50.155,86.672,50.188z"></path>
			<path fill="#B3B3B3" d="M85.396,40.586c0.017,0.063,0.036,0.124,0.053,0.187l1.161-0.311c-0.017-0.063-0.036-0.124-0.053-0.187
				L85.396,40.586z"></path>
			<path fill="#B3B3B3" d="M23.895,76.093l-0.85,0.85c0.046,0.046,0.091,0.092,0.137,0.137l0.85-0.85
				C23.987,76.184,23.941,76.139,23.895,76.093z"></path>
			<path fill="#B3B3B3" d="M75.98,24.283l0.85-0.85c-0.046-0.046-0.091-0.092-0.137-0.137l-0.85,0.85
				C75.888,24.191,75.934,24.237,75.98,24.283z"></path>
			<path fill="#B3B3B3" d="M84.432,37.529c0.022,0.061,0.042,0.123,0.064,0.184l1.129-0.411c-0.022-0.061-0.041-0.123-0.064-0.184
				L84.432,37.529z"></path>
			<path fill="#B3B3B3" d="M78.01,26.505c0.042,0.05,0.086,0.097,0.128,0.147l0.92-0.772c-0.042-0.05-0.086-0.098-0.127-0.147
				L78.01,26.505z"></path>
			<path fill="#B3B3B3" d="M73.473,21.988c0.05,0.042,0.097,0.085,0.147,0.127l0.772-0.92c-0.049-0.042-0.097-0.086-0.147-0.127
				L73.473,21.988z"></path>
			<path fill="#B3B3B3" d="M68.219,18.33c0.056,0.032,0.112,0.064,0.168,0.097l0.601-1.04c-0.056-0.033-0.112-0.065-0.168-0.097
				L68.219,18.33z"></path>
			<path fill="#B3B3B3" d="M70.924,20.046c0.053,0.037,0.106,0.076,0.159,0.113l0.689-0.984c-0.053-0.037-0.106-0.076-0.159-0.113
				L70.924,20.046z"></path>
			<path fill="#B3B3B3" d="M83.191,34.575c0.028,0.058,0.053,0.118,0.08,0.177l1.089-0.508c-0.027-0.059-0.052-0.118-0.08-0.177
				L83.191,34.575z"></path>
			<path fill="#B3B3B3" d="M79.967,29.042c0.037,0.053,0.076,0.105,0.113,0.158l0.984-0.689c-0.037-0.053-0.075-0.105-0.113-0.158
				L79.967,29.042z"></path>
			<path fill="#B3B3B3" d="M15.379,37.713c0.022-0.061,0.042-0.123,0.064-0.184l-1.13-0.411c-0.022,0.061-0.042,0.123-0.064,0.184
				L15.379,37.713z"></path>
			<path fill="#B3B3B3" d="M14.479,59.789c-0.017-0.063-0.036-0.124-0.053-0.187l-1.161,0.311c0.017,0.063,0.036,0.124,0.053,0.187
				L14.479,59.789z"></path>
			<path fill="#B3B3B3" d="M65.551,83.441c-0.058,0.027-0.118,0.053-0.177,0.08l0.508,1.089c0.059-0.027,0.118-0.052,0.177-0.08
				L65.551,83.441z"></path>
			<path fill="#B3B3B3" d="M73.62,78.26c-0.049,0.042-0.097,0.086-0.147,0.127l0.772,0.92c0.05-0.042,0.097-0.085,0.147-0.127
				L73.62,78.26z"></path>
			<path fill="#B3B3B3" d="M62.596,84.682c-0.061,0.022-0.123,0.042-0.184,0.064l0.411,1.129c0.061-0.022,0.123-0.041,0.184-0.064
				L62.596,84.682z"></path>
			<path fill="#B3B3B3" d="M71.083,80.217c-0.053,0.037-0.106,0.076-0.159,0.113l0.689,0.984c0.053-0.037,0.106-0.075,0.159-0.113
				L71.083,80.217z"></path>
			<path fill="#B3B3B3" d="M68.387,81.948c-0.056,0.033-0.112,0.065-0.168,0.097l0.601,1.04c0.056-0.032,0.112-0.064,0.168-0.097
				L68.387,81.948z"></path>
			<path fill="#B3B3B3" d="M53.236,86.768c-0.064,0.006-0.129,0.009-0.194,0.015l0.105,1.197c0.064-0.005,0.129-0.009,0.194-0.015
				L53.236,86.768z"></path>
			<path fill="#B3B3B3" d="M56.411,86.342c-0.064,0.011-0.127,0.023-0.191,0.034l0.209,1.183c0.064-0.011,0.128-0.023,0.191-0.034
				L56.411,86.342z"></path>
			<path fill="#B3B3B3" d="M59.54,85.646c-0.063,0.017-0.124,0.036-0.187,0.053l0.311,1.161c0.063-0.017,0.124-0.036,0.187-0.053
				L59.54,85.646z"></path>
			<path fill="#B3B3B3" d="M80.08,71.175c-0.037,0.053-0.075,0.106-0.113,0.159l0.984,0.689c0.037-0.053,0.076-0.106,0.113-0.159
				L80.08,71.175z"></path>
			<path fill="#B3B3B3" d="M78.137,73.723c-0.042,0.05-0.085,0.097-0.127,0.147l0.92,0.772c0.042-0.049,0.086-0.097,0.127-0.147
				L78.137,73.723z"></path>
			<path fill="#B3B3B3" d="M86.126,56.47c-0.011,0.064-0.023,0.127-0.034,0.191l1.183,0.209c0.011-0.064,0.023-0.127,0.034-0.191
				L86.126,56.47z"></path>
			<path fill="#B3B3B3" d="M86.532,53.292c-0.005,0.064-0.009,0.129-0.015,0.194l1.197,0.105c0.006-0.064,0.009-0.129,0.015-0.194
				L86.532,53.292z"></path>
			<path fill="#B3B3B3" d="M84.496,62.662c-0.022,0.061-0.042,0.123-0.064,0.184l1.13,0.411c0.022-0.061,0.042-0.123,0.064-0.184
				L84.496,62.662z"></path>
			<path fill="#B3B3B3" d="M85.449,59.603c-0.017,0.063-0.036,0.124-0.053,0.187l1.161,0.311c0.017-0.063,0.036-0.124,0.053-0.187
				L85.449,59.603z"></path>
			<path fill="#B3B3B3" d="M50.035,88.121V86.92c-0.033,0-0.065,0.002-0.097,0.002s-0.065-0.002-0.097-0.002v1.201
				c0.033,0,0.065,0.002,0.097,0.002S50.002,88.121,50.035,88.121z"></path>
			<path fill="#B3B3B3" d="M83.271,65.624c-0.027,0.059-0.052,0.118-0.08,0.177l1.089,0.508c0.027-0.058,0.053-0.118,0.08-0.177
				L83.271,65.624z"></path>
			<path fill="#B3B3B3" d="M81.795,68.469c-0.032,0.056-0.064,0.112-0.097,0.168l1.041,0.601c0.033-0.056,0.064-0.112,0.097-0.168
				L81.795,68.469z"></path>
			<path fill="#B3B3B3" d="M18.177,68.637c-0.033-0.056-0.065-0.112-0.097-0.168l-1.041,0.601c0.032,0.056,0.064,0.112,0.097,0.168
				L18.177,68.637z"></path>
			<path fill="#B3B3B3" d="M13.783,56.662c-0.011-0.064-0.023-0.128-0.034-0.191l-1.183,0.209c0.011,0.064,0.023,0.128,0.034,0.191
				L13.783,56.662z"></path>
			<path fill="#B3B3B3" d="M15.443,62.847c-0.022-0.061-0.042-0.123-0.064-0.184l-1.13,0.411c0.022,0.061,0.042,0.123,0.064,0.184
				L15.443,62.847z"></path>
			<path fill="#B3B3B3" d="M16.684,65.802c-0.027-0.058-0.053-0.118-0.08-0.177l-1.089,0.508c0.027,0.059,0.052,0.118,0.08,0.177
				L16.684,65.802z"></path>
			<path fill="#B3B3B3" d="M14.426,40.773c0.017-0.063,0.036-0.124,0.053-0.187l-1.161-0.311c-0.017,0.063-0.036,0.124-0.053,0.187
				L14.426,40.773z"></path>
			<path fill="#B3B3B3" d="M19.908,71.333c-0.037-0.053-0.076-0.106-0.113-0.159l-0.984,0.689c0.037,0.053,0.075,0.106,0.113,0.159
				L19.908,71.333z"></path>
			<path fill="#B3B3B3" d="M13.358,53.486c-0.006-0.064-0.009-0.129-0.015-0.194l-1.197,0.105c0.005,0.064,0.009,0.129,0.015,0.194
				L13.358,53.486z"></path>
			<path fill="#B3B3B3" d="M13.749,43.905c0.011-0.064,0.023-0.128,0.034-0.191L12.6,43.505c-0.011,0.064-0.023,0.127-0.034,0.191
				L13.749,43.905z"></path>
			<path fill="#B3B3B3" d="M13.343,47.083c0.005-0.064,0.009-0.129,0.015-0.194l-1.197-0.105c-0.006,0.064-0.009,0.129-0.015,0.194
				L13.343,47.083z"></path>
			<path fill="#B3B3B3" d="M31.657,82.046c-0.056-0.032-0.113-0.064-0.168-0.097l-0.601,1.04c0.056,0.033,0.112,0.065,0.168,0.097
				L31.657,82.046z"></path>
			<path fill="#B3B3B3" d="M37.463,84.746c-0.061-0.022-0.123-0.041-0.184-0.064l-0.411,1.129c0.061,0.022,0.123,0.042,0.184,0.064
				L37.463,84.746z"></path>
			<path fill="#B3B3B3" d="M21.865,73.87c-0.042-0.049-0.086-0.097-0.127-0.147l-0.92,0.772c0.042,0.05,0.085,0.097,0.127,0.147
				L21.865,73.87z"></path>
			<path fill="#B3B3B3" d="M43.656,86.376c-0.064-0.011-0.127-0.023-0.191-0.034l-0.209,1.183c0.064,0.011,0.127,0.023,0.191,0.034
				L43.656,86.376z"></path>
			<path fill="#B3B3B3" d="M34.501,83.521c-0.059-0.027-0.118-0.052-0.177-0.08l-0.508,1.089c0.058,0.027,0.118,0.053,0.177,0.08
				L34.501,83.521z"></path>
			<path fill="#B3B3B3" d="M40.523,85.699c-0.063-0.017-0.124-0.036-0.187-0.053l-0.311,1.161c0.063,0.017,0.124,0.036,0.187,0.053
				L40.523,85.699z"></path>
			<path fill="#B3B3B3" d="M46.833,86.782c-0.064-0.005-0.129-0.009-0.194-0.015l-0.105,1.197c0.064,0.006,0.129,0.009,0.194,0.015
				L46.833,86.782z"></path>
			<path fill="#B3B3B3" d="M26.402,78.388c-0.05-0.042-0.098-0.086-0.147-0.128l-0.772,0.92c0.05,0.042,0.097,0.086,0.147,0.128
				L26.402,78.388z"></path>
			<path fill="#B3B3B3" d="M28.951,80.33c-0.053-0.037-0.105-0.075-0.158-0.113l-0.689,0.984c0.053,0.037,0.105,0.076,0.158,0.113
				L28.951,80.33z"></path>
		</g>
	</g>
	<g id="dark">
		<g fill="#4d4d4d">
			<path fill="#4d4d4d" d="M48.123,8.121V2.842h1.394l1.097,1.935c0.313,0.556,0.627,1.214,0.862,1.809H51.5
				c-0.079-0.697-0.102-1.41-0.102-2.201V2.842h1.097v5.279H51.24l-1.128-2.037c-0.313-0.564-0.658-1.245-0.916-1.864l-0.024,0.008
				c0.032,0.697,0.047,1.441,0.047,2.303v1.59H48.123z"></path>
		</g>
		<g fill="#4d4d4d">
			<path fill="#4d4d4d" d="M93.966,51.388v-1.943h-1.253v2.17h-0.979v-3.368h5.28v3.258h-0.979v-2.06h-1.097v1.943
				C94.938,51.388,93.966,51.388,93.966,51.388z"></path>
		</g>
		<g fill="#4d4d4d">
			<path fill="#4d4d4d" d="M7.601,52.347L2.321,53.6v-1.277l2.178-0.4c0.627-0.117,1.308-0.227,1.84-0.313v-0.016
				c-0.572-0.086-1.206-0.212-1.856-0.345l-2.162-0.446v-1.269l2.224-0.423c0.619-0.118,1.183-0.204,1.77-0.282v-0.016
				c-0.587-0.078-1.206-0.196-1.833-0.306L2.32,48.076v-1.214l5.279,1.363v1.292l-2.271,0.447c-0.533,0.102-1.026,0.188-1.629,0.251
				v0.016c0.595,0.094,1.096,0.18,1.629,0.305l2.271,0.501v1.31H7.601z"></path>
		</g>
		<g fill="#4d4d4d">
			<path fill="#4d4d4d" d="M51.561,93.27c-0.321-0.164-0.815-0.329-1.324-0.329c-0.548,0-0.838,0.227-0.838,0.572
				c0,0.329,0.251,0.517,0.885,0.744c0.877,0.305,1.449,0.791,1.449,1.559c0,0.901-0.752,1.59-1.997,1.59
				c-0.595,0-1.034-0.125-1.347-0.266l0.267-0.963c0.212,0.102,0.588,0.251,1.104,0.251c0.517,0,0.768-0.235,0.768-0.509
				c0-0.336-0.298-0.485-0.979-0.744c-0.932-0.344-1.371-0.83-1.371-1.575c0-0.885,0.681-1.637,2.131-1.637
				c0.603,0,1.198,0.156,1.496,0.321L51.561,93.27z"></path>
		</g>
		<polygon fill="#4d4d4d" points="89.831,50.126 85.602,51.606 85.602,48.646 		"></polygon>
		<polygon fill="#4d4d4d" points="9.66,50.126 13.888,48.646 13.888,51.606 		"></polygon>
		<polygon fill="#4d4d4d" points="49.891,90.261 48.41,86.031 51.371,86.031 		"></polygon>
		<polygon fill="#4d4d4d" points="49.891,9.798 51.371,14.026 48.41,14.026 		"></polygon>
	</g>
	<g id="hlight">
		<g fill="#fff">
			<path fill="#fff" d="M68.134,18.282c0.112,0.064,0.225,0.128,0.337,0.194l1.054-1.826c-0.112-0.065-0.224-0.129-0.337-0.194
				L68.134,18.282z"></path>
			<path fill="#fff" d="M59.259,14.65c0.126,0.033,0.249,0.072,0.374,0.106l0.546-2.037c-0.125-0.034-0.248-0.073-0.374-0.106
				L59.259,14.65z"></path>
			<path fill="#fff" d="M31.404,18.475c0.112-0.065,0.225-0.13,0.337-0.194l-1.054-1.826c-0.113,0.064-0.225,0.128-0.337,0.194
				L31.404,18.475z"></path>
			<path fill="#fff" d="M83.476,30.6l-1.826,1.054c0.066,0.112,0.13,0.225,0.194,0.337l1.826-1.054
				C83.605,30.824,83.541,30.712,83.476,30.6z"></path>
			<path fill="#fff" d="M40.242,14.756c0.125-0.034,0.248-0.073,0.374-0.106l-0.546-2.037c-0.126,0.033-0.249,0.072-0.374,0.106
				L40.242,14.756z"></path>
			<path fill="#fff" d="M23.694,24.494c0.181-0.185,0.365-0.369,0.55-0.55l-1.491-1.491c-0.185,0.182-0.368,0.365-0.55,0.55
				L23.694,24.494z"></path>
			<path fill="#fff" d="M76.182,75.881c-0.182,0.185-0.365,0.369-0.551,0.551l1.491,1.491c0.185-0.182,0.369-0.365,0.551-0.551
				L76.182,75.881z"></path>
			<path fill="#fff" d="M23.694,75.881l-1.491,1.491c0.182,0.185,0.365,0.369,0.55,0.55l1.491-1.491
				C24.059,76.25,23.875,76.067,23.694,75.881z"></path>
			<path fill="#fff" d="M18.031,31.991c0.064-0.113,0.128-0.225,0.194-0.337L16.399,30.6c-0.065,0.112-0.129,0.225-0.194,0.337
				L18.031,31.991z"></path>
			<path fill="#fff" d="M76.181,24.494l1.491-1.491c-0.182-0.185-0.365-0.369-0.55-0.55l-1.491,1.491
				C75.817,24.126,76,24.309,76.181,24.494z"></path>
			<path fill="#fff" d="M85.369,40.493c0.034,0.125,0.073,0.249,0.106,0.374l2.037-0.546c-0.033-0.126-0.072-0.249-0.106-0.374
				L85.369,40.493z"></path>
			<path fill="#fff" d="M59.633,85.62c-0.125,0.034-0.248,0.073-0.374,0.106l0.546,2.037c0.126-0.033,0.249-0.072,0.374-0.106
				L59.633,85.62z"></path>
			<path fill="#fff" d="M68.471,81.9c-0.112,0.065-0.224,0.129-0.337,0.194l1.054,1.826c0.112-0.064,0.225-0.128,0.337-0.194
				L68.471,81.9z"></path>
			<path fill="#fff" d="M81.844,68.384c-0.064,0.112-0.128,0.225-0.194,0.337l1.826,1.054c0.065-0.112,0.129-0.224,0.194-0.337
				L81.844,68.384z"></path>
			<path fill="#fff" d="M85.476,59.509c-0.033,0.126-0.072,0.249-0.106,0.374l2.037,0.546c0.034-0.125,0.073-0.248,0.106-0.374
				L85.476,59.509z"></path>
			<path fill="#fff" d="M31.742,82.094c-0.113-0.064-0.225-0.128-0.337-0.194l-1.054,1.826c0.112,0.066,0.225,0.13,0.337,0.194
				L31.742,82.094z"></path>
			<path fill="#fff" d="M14.506,59.883c-0.034-0.125-0.073-0.248-0.106-0.374l-2.037,0.546c0.033,0.126,0.072,0.249,0.106,0.374
				L14.506,59.883z"></path>
			<path fill="#fff" d="M18.225,68.721c-0.065-0.112-0.129-0.224-0.194-0.337l-1.826,1.054c0.064,0.112,0.128,0.225,0.194,0.337
				L18.225,68.721z"></path>
			<path fill="#fff" d="M40.617,85.726c-0.126-0.033-0.249-0.072-0.374-0.106l-0.546,2.037c0.125,0.034,0.249,0.073,0.374,0.106
				L40.617,85.726z"></path>
			<path fill="#fff" d="M14.399,40.867c0.033-0.126,0.072-0.249,0.106-0.374l-2.037-0.546c-0.034,0.125-0.073,0.248-0.106,0.374
				L14.399,40.867z"></path>
		</g>
	</g>
	<g id="light">
		<g fill="#ccc">
			<path fill="#ccc" d="M77.86,18.709l2.796-2.896l0.408,0.394l-0.486,2.361c-0.113,0.547-0.24,1.014-0.389,1.443l0.013,0.004
				c0.339-0.42,0.671-0.78,1.106-1.231l1.17-1.211l0.352,0.34l-2.795,2.896l-0.378-0.365l0.499-2.357
				c0.109-0.517,0.235-1.034,0.392-1.489l-0.017-0.008c-0.331,0.386-0.659,0.742-1.123,1.223l-1.195,1.237L77.86,18.709z"></path>
			<path fill="#ccc" d="M83.387,21.736l-1.036-1.172l-1.087,0.96l1.154,1.307l-0.327,0.288l-1.498-1.696l3.015-2.664l1.439,1.629
				l-0.327,0.288l-1.094-1.239l-0.953,0.842l1.036,1.172L83.387,21.736z"></path>
		</g>
		<g fill="#ccc">
			<path fill="#ccc" d="M17.127,23.45l-3.028-2.652l0.374-0.427l2.382,0.371c0.552,0.086,1.024,0.19,1.46,0.318l0.003-0.013
				c-0.436-0.318-0.812-0.632-1.284-1.045l-1.267-1.11l0.322-0.368l3.028,2.652l-0.346,0.395l-2.379-0.384
				c-0.522-0.084-1.045-0.185-1.506-0.319l-0.007,0.017c0.401,0.312,0.773,0.622,1.276,1.062l1.294,1.133L17.127,23.45z"></path>
			<path fill="#ccc" d="M20.137,20.136l-3.484-2.258l0.403-0.373l1.734,1.169c0.429,0.287,0.848,0.581,1.165,0.817l0.009-0.008
				c-0.224-0.338-0.456-0.774-0.709-1.248l-0.986-1.854l0.398-0.369l1.747,1.165c0.408,0.273,0.811,0.551,1.143,0.821l0.009-0.008
				c-0.239-0.381-0.46-0.786-0.709-1.239l-0.99-1.85l0.39-0.361l1.899,3.727l-0.399,0.369l-1.797-1.192
				c-0.441-0.291-0.77-0.524-1.086-0.785l-0.009,0.008c0.22,0.342,0.422,0.692,0.665,1.174l1.004,1.927L20.137,20.136z"></path>
		</g>
		<g fill="#ccc">
			<path fill="#ccc" d="M22.282,82.67c-0.079-0.262-0.255-0.576-0.523-0.814c-0.398-0.352-0.816-0.348-1.085-0.044
				c-0.25,0.281-0.231,0.585,0.037,1.101c0.337,0.61,0.415,1.134,0.039,1.558c-0.415,0.469-1.113,0.473-1.698-0.045
				c-0.308-0.273-0.468-0.543-0.535-0.737l0.388-0.222c0.051,0.141,0.173,0.408,0.445,0.649c0.411,0.364,0.785,0.257,0.967,0.051
				c0.249-0.281,0.189-0.582-0.084-1.111c-0.335-0.648-0.377-1.123,0.015-1.565c0.412-0.465,1.112-0.562,1.822,0.067
				c0.291,0.257,0.532,0.623,0.599,0.873L22.282,82.67z"></path>
			<path fill="#ccc" d="M20.053,79.783l-2.237,3.496l-0.376-0.401l1.159-1.74c0.284-0.43,0.576-0.851,0.81-1.169l-0.008-0.009
				c-0.337,0.226-0.771,0.461-1.244,0.716l-1.848,0.996l-0.371-0.396l1.155-1.753c0.271-0.409,0.546-0.814,0.814-1.148l-0.008-0.009
				c-0.379,0.241-0.783,0.464-1.235,0.716l-1.844,1l-0.363-0.387l3.715-1.92l0.371,0.396l-1.182,1.803
				c-0.289,0.443-0.519,0.773-0.779,1.09l0.008,0.009c0.341-0.221,0.689-0.425,1.17-0.672l1.921-1.015L20.053,79.783z"></path>
		</g>
		<g fill="#ccc">
			<path fill="#ccc" d="M81.742,78.258c-0.264,0.073-0.583,0.241-0.827,0.503c-0.362,0.389-0.368,0.808-0.07,1.084
				c0.276,0.256,0.58,0.245,1.102-0.011c0.618-0.322,1.143-0.388,1.559-0.002c0.46,0.427,0.447,1.124-0.085,1.697
				c-0.281,0.302-0.554,0.455-0.75,0.518l-0.213-0.394c0.142-0.047,0.412-0.163,0.66-0.43c0.374-0.403,0.275-0.779,0.074-0.966
				c-0.276-0.256-0.578-0.203-1.113,0.058c-0.655,0.32-1.132,0.35-1.565-0.053c-0.455-0.423-0.535-1.125,0.111-1.821
				c0.264-0.284,0.636-0.517,0.887-0.577L81.742,78.258z"></path>
			<path fill="#ccc" d="M79.011,82.774l1.141-1.07l-0.992-1.058l-1.272,1.192L77.59,81.52l1.65-1.547l2.752,2.936l-1.586,1.486
				l-0.298-0.318l1.206-1.131l-0.869-0.928l-1.141,1.07L79.011,82.774z"></path>
		</g>
		<polygon fill="#ccc" points="78.299,21.718 76.356,25.755 74.262,23.661 		"></polygon>
		<polygon fill="#ccc" points="21.482,78.534 23.426,74.498 25.519,76.591 		"></polygon>
		<polygon fill="#ccc" points="78.202,78.438 74.165,76.494 76.259,74.401 		"></polygon>
		<polygon fill="#ccc" points="21.385,21.62 25.422,23.564 23.329,25.657 		"></polygon>
	</g>
	<g id="frame">
		<circle fill="none" cx="49.751" cy="50.001" r="49"></circle>
	</g>
</g></svg></svg>