<?xml version="1.0" encoding="utf-8"?>
<svg xmlns="http://www.w3.org/2000/svg" height="256" width="256" viewBox="0 0 256 256">
  <g>
    <path id="path1" transform="rotate(0,128,128) translate(35.0027826175272,35) scale(5.8123226219903,5.8123226219903)  " fill="#04FF93" d="M19.000022,19L29.000022,19 29.000022,21.000001 22.414925,21.000001 32.000019,30.586963 30.586079,32.000962 21.000022,22.413148 21.000022,29 19.000022,29z M3.0000229,19L13.000022,19 13.000022,29 11.000022,29 11.000022,22.413153 1.4139996,32.000975 0,30.586976 9.5851755,21.000001 3.0000229,21.000001z M30.585999,0L32,1.4139996 22.414835,11.000963 29.000022,11.000963 29.000022,13.000963 19.000022,13.000963 19.000022,3.0009632 21.000022,3.0009632 21.000022,9.5877781z M1.4140434,0L11.000022,9.5877781 11.000022,3.0009632 13.000022,3.0009632 13.000022,13.000963 3.0000229,13.000963 3.0000229,11.000963 9.5852089,11.000963 4.3869019E-05,1.4139996z" />
  </g>
</svg>

