<?xml version="1.0" encoding="utf-8"?>
<svg xmlns="http://www.w3.org/2000/svg" height="256" width="256" viewBox="0 0 256 256">
  <g>
    <path id="path1" transform="rotate(0,128,128) translate(35,35.000005543232) scale(5.8125,5.8125)  " fill="#04FF93" d="M11.000003,10.999997L11.000003,20.999997 21.000003,20.999997 21.000003,10.999997z M9.0000027,8.9999969L23.000003,8.9999969 23.000003,22.999997 9.0000027,22.999997z M6.0000002,5.9999993L6.0000002,25.999999 26.000001,25.999999 26.000001,5.9999993z M6.0000002,0L7.9999998,0 7.9999998,3.9999995 15,3.9999995 15,0 17,0 17,3.9999995 24,3.9999995 24,0 26.000001,0 26.000001,3.9999995 28.000001,3.9999995 28.000001,7.9999998 32.000001,7.9999998 32.000001,9.9999993 28.000001,9.9999993 28.000001,15 32.000001,15 32.000001,17 28.000001,17 28.000001,22 32.000001,22 32.000001,24 28.000001,24 28.000001,27.999999 26.000001,27.999999 26.000001,31.999999 24,31.999999 24,27.999999 17,27.999999 17,31.999999 15,31.999999 15,27.999999 8.0000002,27.999999 8.0000002,31.999999 6.0000002,31.999999 6.0000002,27.999999 4,27.999999 4,24 0,24 0,22 4,22 4,17 0,17 0,15 4,15 4,9.9999999 0,9.9999999 0,7.9999998 4,7.9999998 4,3.9999995 6.0000002,3.9999995z" />
  </g>
</svg>

