<svg version="1.1" id="Layer_1" xmlns="http://www.w3.org/2000/svg" xmlns:xlink="http://www.w3.org/1999/xlink" x="0px" y="0px" viewBox="0 0 100 100" xml:space="preserve"><desc>Copyright Opto 22</desc> <svg><g>
<g id="shape">
	<path fill="#CCCCCC" d="M80,97c0,1.65-1.35,3-3,3H23c-1.65,0-3-1.35-3-3V3.25c0-1.65,1.35-3,3-3h54c1.65,0,3,1.35,3,3V97z"></path>
</g>
<g id="light">
	<circle fill="#E6E6E6" cx="50" cy="72.417" r="15.417"></circle>
	<circle fill="#E6E6E6" cx="50" cy="27.583" r="15.417"></circle>
	<circle fill="#E6E6E6" cx="50" cy="50" r="2.5"></circle>
	<path fill="#E6E6E6" d="M25,5h50l4.094-3.889C78.552,0.58,77.813,0.25,77,0.25H23c-1.65,0-3,1.35-3,3V97
		c0,0.825,0.338,1.575,0.881,2.119L25,95V5z"></path>
</g>
<g id="dark">
	<polygon fill="#4D4D4D" points="44.75,64.333 44.75,71.667 42.25,71.667 42.25,72.667 45.75,72.667 45.75,64.333 	"></polygon>
	<polygon fill="#4D4D4D" points="56.75,64.333 56.75,71.667 54.25,71.667 54.25,72.667 57.75,72.667 57.75,64.333 	"></polygon>
	<polygon fill="#4D4D4D" points="44.75,19.5 44.75,26.833 42.25,26.833 42.25,27.833 45.75,27.833 45.75,19.5 	"></polygon>
	<polygon fill="#4D4D4D" points="56.75,19.5 56.75,26.833 54.25,26.833 54.25,27.833 57.75,27.833 57.75,19.5 	"></polygon>
	<rect x="49.5" y="47.46" transform="matrix(0.6566 0.7543 -0.7543 0.6566 54.8852 -20.5419)" fill="#4D4D4D" width="1" height="5.08"></rect>
	<path fill="#4D4D4D" d="M79.094,1.111L75,5v90H25l-4.119,4.119C21.425,99.662,22.175,100,23,100h54c1.65,0,3-1.35,3-3V3.25
		C80,2.413,79.651,1.656,79.094,1.111z"></path>
</g>
<g id="shadow">
	<path fill="#000000" d="M35.583,73.417C35.583,64.902,42.486,58,51,58c4.003,0,7.637,1.538,10.377,4.039C58.558,58.95,54.512,57,50,57
		c-8.514,0-15.417,6.902-15.417,15.417c0,4.512,1.95,8.558,5.039,11.377C37.122,81.054,35.583,77.419,35.583,73.417z"></path>
	<rect x="42.25" y="64.333" width="2.5" height="7.333"></rect>
	<rect x="54.25" y="64.333" width="2.5" height="7.333"></rect>
	<path d="M46.75,82.833v-2.417c0-1.795,1.455-3.25,3.25-3.25s3.25,1.455,3.25,3.25v2.417H46.75z"></path>
	<path d="M35.583,28.583c0-8.514,6.902-15.417,15.417-15.417c4.003,0,7.637,1.538,10.377,4.039
		c-2.819-3.089-6.865-5.039-11.377-5.039c-8.514,0-15.417,6.902-15.417,15.417c0,4.512,1.95,8.558,5.039,11.377
		C37.122,36.22,35.583,32.586,35.583,28.583z"></path>
	<rect x="42.25" y="19.5" width="2.5" height="7.333"></rect>
	<rect x="54.25" y="19.5" width="2.5" height="7.333"></rect>
	<path d="M46.75,38v-2.417c0-1.795,1.455-3.25,3.25-3.25s3.25,1.455,3.25,3.25V38H46.75z"></path>
</g>
<g id="hlight">
	<polygon fill="#FFFFFF" points="25.25,95 24.75,95 24.75,4.75 75,4.75 75,5.25 25.25,5.25 	"></polygon>
	<rect x="20.241" y="2.7" transform="matrix(0.725 0.6887 -0.6887 0.725 8.4597 -14.9883)" fill="#FFFFFF" width="5.517" height="0.8"></rect>
</g>
</g></svg><svg><g>
<g id="light">
	<ellipse fill="#CCCCCC" cx="22.336" cy="41.866" rx="1.108" ry="0.398"></ellipse>
	<path fill="#CCCCCC" d="M82.01,12.664l-0.039-4.038l3.636,1.15c-0.252,0.033-0.436,0.145-0.436,0.424
		c0,0.156,0.059,0.298,0.154,0.407c-0.095,0.067-0.154,0.17-0.154,0.326c0,0.141,0.048,0.269,0.126,0.374
		c-0.078,0.067-0.126,0.164-0.126,0.305c0,0.346,0.281,0.627,0.627,0.627c0.347,0,0.627-0.281,0.627-0.627
		c0-0.141-0.048-0.238-0.126-0.305c0.078-0.105,0.126-0.233,0.126-0.374c0-0.156-0.059-0.259-0.154-0.326
		c0.095-0.11,0.154-0.251,0.154-0.407c0-0.096-0.023-0.17-0.061-0.23V9.827V8.58l-4.419-2.682v0.127l-0.01-1.059
		c0-0.155-0.418-0.28-0.934-0.28c-0.516,0-0.934,0.125-0.934,0.28l-0.003,0.357l-4.413-0.051h-1.134v1.29l0.319,0.095
		c-0.283,0.055-0.482,0.204-0.482,0.533c0,0.201,0.076,0.382,0.197,0.523c-0.121,0.086-0.197,0.218-0.197,0.418
		c0,0.181,0.062,0.346,0.162,0.48c-0.101,0.087-0.162,0.211-0.162,0.392c0,0.444,0.36,0.805,0.805,0.805
		c0.445,0,0.805-0.36,0.805-0.805c0-0.181-0.062-0.305-0.162-0.392c0.101-0.134,0.162-0.299,0.162-0.48
		c0-0.201-0.076-0.332-0.197-0.418c0.121-0.141,0.197-0.322,0.197-0.523c0-0.082-0.016-0.149-0.038-0.21l4.111,1.22l-0.039,3.997
		l-4.346,0.743l-1.134,0.151v1.138l0.265,0.042c-0.233,0.069-0.391,0.218-0.391,0.51c0,0.201,0.076,0.382,0.197,0.523
		c-0.121,0.086-0.197,0.218-0.197,0.418c0,0.181,0.062,0.346,0.162,0.48c-0.101,0.087-0.162,0.211-0.162,0.392
		c0,0.444,0.36,0.805,0.805,0.805c0.445,0,0.805-0.36,0.805-0.805c0-0.181-0.062-0.305-0.162-0.392
		c0.101-0.134,0.162-0.299,0.162-0.48c0-0.201-0.076-0.332-0.197-0.418c0.121-0.141,0.197-0.322,0.197-0.523
		c0-0.143-0.041-0.249-0.106-0.332l4.073,0.652L79.507,62.38c0,0.248,0.669,0.448,1.494,0.448c0.825,0,1.494-0.201,1.494-0.448
		l-0.46-47.106l3.053,0.466c-0.089,0.067-0.145,0.168-0.145,0.319c0,0.156,0.059,0.298,0.154,0.407
		c-0.095,0.067-0.154,0.17-0.154,0.326c0,0.141,0.048,0.269,0.126,0.374c-0.078,0.067-0.126,0.164-0.126,0.305
		c0,0.346,0.281,0.627,0.627,0.627c0.347,0,0.627-0.281,0.627-0.627c0-0.141-0.048-0.238-0.126-0.305
		c0.078-0.105,0.126-0.233,0.126-0.374c0-0.156-0.059-0.259-0.154-0.326c0.095-0.11,0.154-0.251,0.154-0.407
		c0-0.059-0.011-0.108-0.026-0.154l0.267,0.041v-0.227V14.51L82.01,12.664z"></path>
	<path fill="#CCCCCC" d="M19.577,19.098c0.213,0,0.385-0.056,0.385-0.268c0-0.096-0.036-0.183-0.094-0.25
		c0.058-0.041,0.094-0.104,0.094-0.2c0-0.087-0.03-0.166-0.078-0.23c0.048-0.041,0.078-0.101,0.078-0.188
		c0-0.213-0.172-0.385-0.385-0.385c-0.213,0-0.385,0.172-0.385,0.385c0,0.087,0.03,0.146,0.078,0.188
		c-0.048,0.064-0.078,0.143-0.078,0.23c0,0.096,0.036,0.159,0.095,0.2c-0.058,0.067-0.095,0.154-0.095,0.25
		C19.192,19.042,19.364,19.098,19.577,19.098z"></path>
	<path fill="#CCCCCC" d="M24.669,18.094c-0.166,0-0.3,0.134-0.3,0.3c0,0.067,0.023,0.114,0.06,0.146
		c-0.037,0.05-0.06,0.112-0.06,0.179c0,0.075,0.028,0.124,0.074,0.156c-0.045,0.053-0.074,0.12-0.074,0.195
		c0,0.166,0.134,0.209,0.3,0.209c0.166,0,0.3-0.043,0.3-0.209c0-0.075-0.028-0.142-0.074-0.195c0.045-0.032,0.074-0.081,0.074-0.156
		c0-0.067-0.023-0.129-0.06-0.179c0.037-0.032,0.06-0.079,0.06-0.146C24.969,18.229,24.835,18.094,24.669,18.094z"></path>
	<path fill="#CCCCCC" d="M24.56,21.578c-0.166,0-0.3,0.134-0.3,0.3c0,0.067,0.023,0.114,0.06,0.146
		c-0.037,0.05-0.06,0.112-0.06,0.179c0,0.075,0.028,0.124,0.074,0.156c-0.045,0.053-0.074,0.12-0.074,0.195
		c0,0.166,0.134,0.209,0.3,0.209c0.166,0,0.3-0.043,0.3-0.209c0-0.075-0.028-0.142-0.074-0.195c0.045-0.032,0.074-0.081,0.074-0.156
		c0-0.067-0.023-0.129-0.061-0.179c0.037-0.032,0.061-0.079,0.061-0.146C24.861,21.712,24.726,21.578,24.56,21.578z"></path>
	<path fill="#CCCCCC" d="M24.976,17.415l-2.151-0.843l-0.005-0.471c0-0.074-0.2-0.134-0.447-0.134c-0.247,0-0.447,0.06-0.447,0.134
		l-0.003,0.26l-2.111,0.491H19.27v0.617l2.64,0.18l-0.024,2.291l-2.074,0.355l-0.543,0.072v0.545l0.173,0.028
		c-0.137,0.059-0.232,0.195-0.232,0.353c0,0.087,0.03,0.146,0.078,0.188c-0.048,0.064-0.078,0.143-0.078,0.23
		c0,0.096,0.036,0.159,0.094,0.2c-0.058,0.067-0.094,0.154-0.094,0.25c0,0.213,0.172,0.268,0.385,0.268
		c0.213,0,0.385-0.056,0.385-0.268c0-0.096-0.036-0.183-0.095-0.25c0.058-0.041,0.095-0.104,0.095-0.2
		c0-0.087-0.03-0.166-0.078-0.23c0.048-0.041,0.078-0.101,0.078-0.188c0-0.115-0.052-0.218-0.132-0.288l2.024,0.324L21.658,42.03
		c0,0.119,0.32,0.215,0.715,0.215c0.395,0,0.715-0.096,0.715-0.215l-0.222-21.482l0.086,0.751l2.024,0.061v-0.578l-2.115-0.734
		l-0.034-3.321l0.125,1.027l2.024,0.235V17.415z"></path>
</g>
<g id="radial">
	<linearGradient class="radial" id="SVGID_1_" gradientUnits="userSpaceOnUse" x1="-3.1963" y1="17.1332" x2="120.2798" y2="17.1332">
		<stop offset="0" style="stop-color:#0D0D0D"></stop>

		<stop offset="0.7796" style="stop-color:#000000"></stop>
	</linearGradient>
	<path class="radial" fill="url(#SVGID_1_)" d="M75.197,9.694c0,0-33.519,20.599-55.705,9.552C13.072,24.043,6.463,25.804,0,23.58v0.07
		c6.463,2.152,13.072,0.448,19.492-4.193c22.186,10.69,55.705-9.358,55.705-9.358s9.031,2.647,24.803,1.199v-0.461
		C84.227,12.368,75.197,9.694,75.197,9.694z"></path>
	<linearGradient class="radial" id="SVGID_2_" gradientUnits="userSpaceOnUse" x1="-46.014" y1="18.1518" x2="217.2047" y2="18.1518">
		<stop offset="0" style="stop-color:#0D0D0D"></stop>

		<stop offset="0.7796" style="stop-color:#000000"></stop>
	</linearGradient>
	<path class="radial" fill="url(#SVGID_2_)" d="M74.402,16.691c0.011,0.092,0.037,0.179,0.077,0.259c-12.219,3.755-32.251,7.986-49.72,2.718
		c-0.377,0.224-0.758,0.436-1.141,0.642l-0.247-0.086c0.468-0.26,0.931-0.533,1.389-0.82C42.191,24.967,62.175,20.601,74.402,16.691
		z M19.94,21.853c-0.015,0.022-0.032,0.042-0.054,0.057c0.019,0.022,0.035,0.048,0.049,0.074c0.569-0.214,1.133-0.446,1.691-0.695
		l-0.272-0.044C20.886,21.461,20.415,21.663,19.94,21.853z M19.212,22.132c-6.305,2.324-13.132,2.379-19.297,0.135v0.107
		c6.168,2.121,12.998,2.068,19.306-0.131c-0.007-0.025-0.012-0.052-0.012-0.083C19.21,22.151,19.212,22.141,19.212,22.132z
		 M75.854,16.218c0.069,0.064,0.118,0.148,0.137,0.258c1.466-0.47,2.799-0.925,3.977-1.345l0-0.028l-0.631-0.101
		C78.282,15.387,77.117,15.797,75.854,16.218z M85.837,12.375c0,0-0.787,0.368-2.216,0.96l0.517,0.216
		c1.101-0.445,1.699-0.712,1.699-0.712s4.631,1.549,14.163,1.831v-0.357C90.468,14.014,85.837,12.375,85.837,12.375z"></path>
	<radialGradient class="radial" id="SVGID_3_" cx="77.4596" cy="20.5472" r="82.9205" gradientUnits="userSpaceOnUse">
		<stop offset="0" style="stop-color:#0D0D0D"></stop>

		<stop offset="0.7796" style="stop-color:#000000"></stop>
	</radialGradient>
	<path class="radial" fill="url(#SVGID_3_)" d="M79.924,19.638l-0.003,0.283c-11.496,2.468-37.306,7.061-55.361,3.143
		c-0.552,0.18-1.106,0.35-1.663,0.511l-0.002-0.149c0.557-0.174,1.112-0.357,1.665-0.55C42.617,27.087,68.43,22.244,79.924,19.638z
		 M-0.151,24.395v0.082c7.133,1.735,14.744,1.339,21.997-0.609l0.001-0.128C14.594,25.833,6.983,26.259-0.151,24.395z
		 M85.837,18.192c0,0-1.375,0.377-3.764,0.946l0.003,0.309c2.387-0.538,3.761-0.894,3.761-0.894s5.029,0.67,14.163,0.787v-0.345
		C90.866,18.889,85.837,18.192,85.837,18.192z"></path>
	<radialGradient class="radial" id="SVGID_4_" cx="179.5054" cy="16.2587" r="133.0281" gradientUnits="userSpaceOnUse">
		<stop offset="0" style="stop-color:#0D0D0D"></stop>

		<stop offset="0.7796" style="stop-color:#000000"></stop>
	</radialGradient>
	<path class="radial" fill="url(#SVGID_4_)" d="M19.595,22.429c5.069,2.373,10.435,3.529,15.756,3.89c-5.321-0.333-10.687-1.426-15.756-3.683
		C13.869,26.865,5.714,27.072,0,25.492v-0.06C5.714,27.093,13.869,26.876,19.595,22.429z M35.351,26.319
		c4.923,0.335,9.804-0.014,14.377-0.744C45.155,26.283,40.274,26.627,35.351,26.319z M75.197,17.399c0,0-11.228,5.901-25.468,8.176
		c14.24-2.207,25.468-7.874,25.468-7.874c0,0,6.806,3.66,24.803,4.513V22.02C82.003,21.17,75.197,17.399,75.197,17.399z"></path>
</g>
<g id="shape">
	<polygon fill="#E6E6E6" points="66.083,74.183 72.428,77.204 73.372,76.675 67.027,73.654 	"></polygon>
	<polygon fill="#E6E6E6" points="41.777,62.274 41.797,62.269 45.367,63.969 46.066,63.577 41.365,61.339 40.665,61.731 
		41.515,62.135 41.514,62.137 	"></polygon>
	<polygon fill="#E6E6E6" points="12.547,71.372 13.013,71.803 13.008,71.812 13.043,71.83 15.418,74.025 16.06,73.665 13.19,71.063 
			"></polygon>
	<path fill="#E6E6E6" d="M86.052,63.273L48.13,43.626l-13.721,2.226v0.755l0.378,0.262v0.781l1.471,1.022l-0.023,0.004v1.712
		l2.291,0.768l1.016-0.202l1.93,1.341v2.259l-0.063,0.016v-0.255l-0.843,0.201v0.273l-0.113,0.029c0,0,0.008,0,0.02,0.001
		L29.85,57.498l-10.379-9.207L1.085,51.258v1.02l0.378,0.468v1.014l7.185,9.083l-8.591,2.166c-0.138,0.07-0.23,0.233-0.235,0.456
		c-0.006,0.228,0.081,0.466,0.219,0.648h0c0,0,0,0,0,0c0.016,0.021,0.034,0.041,0.051,0.06c0.011,0.012,0.021,0.024,0.032,0.035
		c0.015,0.016,0.031,0.03,0.047,0.044c0.017,0.015,0.035,0.028,0.052,0.042c0.013,0.009,0.025,0.019,0.039,0.028
		c0.033,0.021,0.066,0.039,0.101,0.054c0.077,0.031,0.151,0.042,0.219,0.035L9.6,64.047l3.872,4.895v1.879l2.719,2.719l0.708-0.266
		l17.138,21.664l0.371,0.129v-1.52l0.707-0.407l0.074,0.068l-0.579,0.339v1.482l1.669-0.82l3.934,3.615l6.194-3.777v-4.192v-0.932
		l9.064-6.307v-1.195l0.12-0.069v-1.02L30.933,58.459l9.632-2.523v0.093l0.843,0.34v-0.567l0.063-0.016v5.582l1.41,0.63l3.185,1.498
		l0.34-0.113l-1.108-2.163l1.649-0.531v-0.213l0.013,0.005v0.309l3.412,1.309l0.34-0.113l-0.058-0.102l0.227,0.086l0.964-0.279
		l-0.565-0.214l0.057-0.095l-0.257-0.15l-0.299,0.056l-0.592-0.225l-2.525-4.461l22.482,15.624l-3.043,1.393l3.537,1.631v0.068
		l2.682,1.246l4.403-2.833v-2.417v-0.621l7.821-5.497v-0.876l0.506-0.289V63.273z M36.323,92.446l3.587-2.065v0.069l-3.359,1.964
		L36.323,92.446z M47.124,86.233c0-0.002,0-0.003,0-0.005l0.577-0.332L47.124,86.233z M46.947,59.96v-2.313
		c0.004-0.005,0.009-0.01,0.013-0.015v2.325L46.947,59.96z"></path>
	<polygon fill="#E6E6E6" points="39.107,98.385 34.755,94.364 35.728,93.894 40.08,97.84 	"></polygon>
</g>
<g id="dark">
	<polygon fill="#0C315B" points="55.331,80.306 47.915,73.727 27.207,83.104 34.445,91.995 	"></polygon>
	<polygon fill="#0C315B" points="47.667,73.507 40.986,67.58 20.663,75.065 27.01,82.861 	"></polygon>
	<polygon fill="#0C315B" points="40.73,67.352 34.646,61.955 14.827,67.897 20.461,74.818 	"></polygon>
	<polygon fill="#0C315B" points="34.38,61.719 29.371,57.275 10.078,62.065 14.62,67.644 	"></polygon>
	<polygon fill="#0C315B" points="29.096,57.032 24.41,52.875 5.699,56.686 9.867,61.806 	"></polygon>
	<polygon fill="#0C315B" points="24.127,52.624 19.707,48.702 1.622,51.678 5.484,56.422 	"></polygon>
	<polygon fill="#0C315B" points="85.733,63.279 78.856,59.716 64.289,66.312 71.473,71.274 	"></polygon>
	<polygon fill="#0C315B" points="78.514,59.539 71.992,56.159 57.383,61.54 63.999,66.111 	"></polygon>
	<polygon fill="#0C315B" points="71.629,55.971 65.388,52.738 50.92,57.076 57.079,61.33 	"></polygon>
	<polygon fill="#0C315B" points="65.002,52.538 59.64,49.76 45.436,53.287 50.602,56.856 	"></polygon>
	<polygon fill="#0C315B" points="59.234,49.549 54.012,46.844 40.187,49.66 45.104,53.058 	"></polygon>
	<polygon fill="#0C315B" points="53.585,46.623 48.463,43.969 35.126,46.164 39.842,49.422 	"></polygon>
</g>
<g id="shadow">
	<polygon fill="#333333" points="13.473,68.942 13.473,70.821 16.192,73.541 16.9,73.275 	"></polygon>
	<polygon fill="#333333" points="77.675,70.726 73.322,72.46 73.322,73.087 77.725,71.312 77.725,70.691 	"></polygon>
	<polygon fill="#333333" points="34.786,47.65 71.335,73.05 71.335,72.823 34.786,47.424 	"></polygon>
	<polygon fill="#333333" points="44.894,89.976 39.91,92.426 39.91,93.067 46.406,89.856 46.406,88.924 	"></polygon>
	<polygon fill="#333333" points="1.463,53.76 34.408,95.408 34.408,95.106 1.463,53.458 	"></polygon>
	<polygon fill="#333333" points="36.279,94.211 40.212,97.825 39.91,92.426 	"></polygon>
	<polygon fill="#333333" points="46.96,56.11 46.96,60.788 50.372,62.097 47.035,56.162 	"></polygon>
	<polygon fill="#333333" points="71.335,73.05 70.146,72.223 67.103,73.616 73.322,76.562 73.322,72.46 71.585,73.152 	"></polygon>
	<path fill="#333333" d="M9.333,63.71L0.04,66.112c0.09,0.119,0.201,0.213,0.323,0.263c0.077,0.031,0.151,0.042,0.219,0.035
		L9.6,64.047L9.333,63.71z"></path>
	<polygon fill="#333333" points="36.234,48.677 36.234,50.389 38.525,51.157 39.541,50.955 	"></polygon>
	<path fill="#333333" d="M7.518,63.128l1.13-0.285L9.6,64.047l-1.455,0.381C8.145,64.428,8.612,63.378,7.518,63.128z"></path>
	<path fill="#333333" d="M0.582,66.409c-0.068,0.007-0.142-0.003-0.219-0.035c-0.309-0.125-0.551-0.533-0.541-0.91
		c0.006-0.223,0.098-0.385,0.235-0.456"></path>
	<path fill="#333333" d="M45.298,61.218l1.649-0.531v-4.586l-5.476-3.806v2.273l-0.432,0.109c0,0,0.35,0.253,0.346,0.748
		l-10.742,2.776l0.29,0.257l10.538-2.76v5.668l1.41,0.63l3.185,1.498l-3.185-6.257l0.353-0.05L45.298,61.218z M42.631,55.395
		l-0.121,0.032c0.029-0.01,0.056-0.026,0.081-0.046c0.073-0.061,0.119-0.165,0.123-0.299c0.007-0.276-0.17-0.573-0.395-0.664
		c-0.05-0.02-0.098-0.028-0.143-0.026l0,0h0l0.072-0.018c0.07-0.036,0.156-0.039,0.248-0.001c0.225,0.091,0.402,0.389,0.395,0.664
		C42.886,55.243,42.779,55.379,42.631,55.395z"></path>
	<path d="M80.445,4.966c0-0.135,0.32-0.248,0.745-0.274c-0.061-0.004-0.124-0.006-0.189-0.006c-0.516,0-0.934,0.125-0.934,0.28
		l-0.003,0.353l0.378,0.004L80.445,4.966z"></path>
	<path d="M75.159,9.808c0.065,0,0.128-0.01,0.189-0.025c-0.353-0.085-0.616-0.401-0.616-0.78c0-0.181,0.062-0.305,0.162-0.392
		c-0.101-0.134-0.162-0.299-0.162-0.48c0-0.201,0.076-0.332,0.197-0.418c-0.121-0.141-0.197-0.322-0.197-0.523
		c0-0.329,0.198-0.478,0.482-0.533l-0.319-0.095v-1.29h-0.378v1.29l0.319,0.095c-0.283,0.055-0.482,0.204-0.482,0.533
		c0,0.201,0.076,0.382,0.197,0.523c-0.121,0.086-0.197,0.218-0.197,0.418c0,0.181,0.062,0.346,0.162,0.48
		c-0.101,0.087-0.162,0.211-0.162,0.392C74.354,9.447,74.714,9.808,75.159,9.808z"></path>
	<path d="M85.607,9.776c-0.252,0.033-0.436,0.145-0.436,0.424c0,0.156,0.059,0.298,0.154,0.407c-0.095,0.067-0.154,0.17-0.154,0.326
		c0,0.077,0.015,0.15,0.041,0.218c0.128,0.008,0.258,0.016,0.388,0.023c-0.032-0.074-0.052-0.155-0.052-0.241
		c0-0.156,0.059-0.259,0.154-0.326c-0.095-0.11-0.154-0.251-0.154-0.407c0-0.279,0.184-0.391,0.436-0.575l-3.636-1.15l0.001,0.271
		L85.607,9.776z"></path>
	<path d="M85.549,11.613c0-0.012,0.002-0.022,0.003-0.034c-0.126-0.008-0.252-0.015-0.376-0.023
		c-0.002,0.019-0.005,0.036-0.005,0.057c0,0.346,0.281,0.627,0.627,0.627c0.066,0,0.129-0.013,0.189-0.032
		C85.734,12.128,85.549,11.893,85.549,11.613z"></path>
	<path d="M85.572,18.098c0.066,0,0.129-0.013,0.189-0.032c-0.253-0.081-0.438-0.315-0.438-0.595c0-0.141,0.048-0.238,0.126-0.305
		c-0.078-0.105-0.126-0.233-0.126-0.374c0-0.156,0.059-0.259,0.154-0.326c-0.095-0.11-0.154-0.251-0.154-0.407
		c0-0.151,0.056-0.251,0.145-0.47l-3.053-0.466l0.001,0.209l2.675,0.408c-0.089,0.067-0.145,0.168-0.145,0.319
		c0,0.156,0.059,0.298,0.154,0.407c-0.095,0.067-0.154,0.17-0.154,0.326c0,0.141,0.048,0.269,0.126,0.374
		c-0.078,0.067-0.126,0.164-0.126,0.305C84.945,17.817,85.225,18.098,85.572,18.098z"></path>
	<path d="M79.927,19.394l-0.395,40.502l0.376,0.195l0.395-40.594C80.175,19.462,80.049,19.428,79.927,19.394z"></path>
	<path d="M79.969,15.102l-0.039,4.039c0.122,0.035,0.248,0.07,0.375,0.106l0.042-4.296l-4.073-0.652
		c0.017,0.172,0.032,0.195,0.045,0.219L79.969,15.102z"></path>
	<path d="M80.036,8.2l-0.024,2.431c0.123,0.017,0.249,0.034,0.377,0.051l0.025-2.634l-4.111-1.22
		c0.014,0.188,0.023,0.229,0.03,0.272L80.036,8.2z"></path>
	<path d="M80.008,11.032l-0.011,1.165l-4.346,0.743l-1.134,0.151v1.138l0.265,0.042c-0.233,0.069-0.391,0.218-0.391,0.51
		c0,0.201,0.076,0.382,0.197,0.523c-0.121,0.086-0.197,0.218-0.197,0.418c0,0.181,0.062,0.346,0.162,0.48
		c-0.101,0.087-0.162,0.211-0.162,0.392c0,0.444,0.36,0.805,0.805,0.805c0.065,0,0.128-0.01,0.189-0.025
		c-0.353-0.085-0.616-0.401-0.616-0.78c0-0.181,0.062-0.305,0.162-0.392c-0.101-0.134-0.162-0.299-0.162-0.48
		c0-0.201,0.076-0.332,0.197-0.418c-0.121-0.141-0.197-0.322-0.197-0.523c0-0.292,0.157-0.441,0.391-0.51l-0.265-0.042v-1.138
		l1.134-0.151l4.346-0.743l0.01-1.113C80.258,11.066,80.131,11.049,80.008,11.032z"></path>
</g>
<g id="hlight">
	<polygon fill="#FFFFFF" points="34.31,93.625 0.987,51.335 1.183,51.181 34.756,93.471 	"></polygon>
	
		<rect x="30.366" y="58.634" transform="matrix(0.8214 0.5704 -0.5704 0.8214 42.9822 -19.7325)" fill="#FFFFFF" width="45.259" height="0.25"></rect>
	<path fill="#FFFFFF" d="M85.879,12.257l-0.084,0.236c0.085,0.03,4.771,1.622,14.205,1.92v-0.248
		C90.616,13.87,85.963,12.287,85.879,12.257z"></path>
	<path fill="#FFFFFF" d="M75.232,9.574l-0.071,0.24c0.096,0.028,5.599,1.604,15.373,1.604c2.811,0,5.976-0.131,9.466-0.466v-0.253
		C84.423,12.198,75.356,9.611,75.232,9.574z"></path>
</g>
</g></svg></svg>