<svg id="Layer_1" data-name="Layer 1" xmlns="http://www.w3.org/2000/svg" viewBox="0 0 532.37 120"><g id="Group_84" data-name="Group 84"><g id="Group_85" data-name="Group 85"><path id="Path_54" data-name="Path 54" d="M145.42,66.55H118.13V95.93H102.48V24.25h15.65V52.69h27.32V24.25h15.62V95.93H145.42Z" transform="translate(0 0)" style="fill:#002"/><path id="Path_55" data-name="Path 55" d="M175.91,95.93V24.25H224.7V38.1H191.53V52.69H220V66.55H191.53V82.06H224.7V95.93Z" transform="translate(0 0)" style="fill:#002"/><path id="Path_56" data-name="Path 56" d="M238.26,95.93V24.25h47.56V38.1H253.87V52.69h27.22V66.55H253.87V95.93Z" transform="translate(0 0)" style="fill:#002"/><path id="Path_57" data-name="Path 57" d="M297.42,95.93V83.5h9.24V36.66h-9.24V24.25h34.1V36.66h-9.25V83.5h9.25V95.93Z" transform="translate(0 0)" style="fill:#002"/><path id="Path_58" data-name="Path 58" d="M373.56,97.17a35.78,35.78,0,0,1-13.15-2.31,26.1,26.1,0,0,1-10-6.88,31.53,31.53,0,0,1-6.34-11.43,50.6,50.6,0,0,1-2.26-16,52.2,52.2,0,0,1,2.26-16,33.42,33.42,0,0,1,6.37-11.82,26.5,26.5,0,0,1,9.93-7.24A33.69,33.69,0,0,1,373.56,23q10,0,16.44,4.07t10.37,12.78l-13.46,7a15.93,15.93,0,0,0-4.47-7.23q-3-2.72-8.88-2.73a14.36,14.36,0,0,0-11.05,4.47q-4.15,4.48-4.15,13v11.5q0,8.53,4.15,13a14.36,14.36,0,0,0,11.05,4.47q5.74,0,9.19-3.13a19,19,0,0,0,5.09-7.56L400.57,80A31.68,31.68,0,0,1,390,92.7Q383.53,97.17,373.56,97.17Z" transform="translate(0 0)" style="fill:#002"/><path id="Path_59" data-name="Path 59" d="M411.46,95.93V24.25h48.79V38.1H427.08V52.69h28.45V66.55H427.08V82.06h33.17V95.93Z" transform="translate(0 0)" style="fill:#002"/><path id="Path_60" data-name="Path 60" d="M473.81,24.25h27a35.73,35.73,0,0,1,12.94,2.24,26.21,26.21,0,0,1,10,6.74,30.77,30.77,0,0,1,6.37,11.2,49.25,49.25,0,0,1,2.26,15.66,49.23,49.23,0,0,1-2.26,15.67A30.9,30.9,0,0,1,523.73,87a26.05,26.05,0,0,1-10,6.72A35.54,35.54,0,0,1,500.83,96h-27Zm27,57.83q7,0,11-3.9t4-12.53V54.54c0-5.76-1.33-9.93-4-12.54s-6.34-3.9-11-3.9h-11.4v44Z" transform="translate(0 0)" style="fill:#002"/></g><path id="Path_65" data-name="Path 65" d="M56.73,5.61,52.32,4.35,45.81,2.49,41.4,1.23,37.08,0,32.77,1.23,28.36,2.49,21.85,4.36,17.44,5.62,0,10.6V76.2C0,84.49,5.87,94,17.44,104.41c.25.22.49.45.75.67,1.23,1.09,2.46,2.13,3.66,3.12V71h6.51v42.27L37.08,120l8.73-6.75V71h6.51V108.2c1.2-1,2.43-2,3.66-3.12l.75-.67C68.3,94,74.17,84.48,74.17,76.19V10.59ZM41.4,111c-1.85,1.32-3.36,2.32-4.32,3-1-.63-2.46-1.64-4.31-3V71H41.4ZM69.76,76.2c0,6.2-4.49,13.8-13,22.15V66.54H17.44V98.35C8.9,90,4.41,82.4,4.41,76.2V30.83h13V53.46H56.74V30.83h13Zm-24-45.37h6.52V49H45.81ZM28.37,49H21.85V30.83h6.52ZM56.73,26.4H41.4V49H32.77V26.4H4.41V14l13-3.73L21.85,9,28.37,7.1l4.41-1.26,4.31-1.23,4.32,1.23,4.4,1.26L52.33,9l4.41,1.26,13,3.73V26.4Z" transform="translate(0 0)" style="fill:#87cd00"/></g></svg>