<svg width="124" height="39" viewBox="0 0 124 39" fill="none" xmlns="http://www.w3.org/2000/svg">
<g clip-path="url(#clip0_1320:4637)">
<path d="M4.30761 5.6084H0V26.3568H4.30761V5.6084Z" fill="white"/>
<path d="M11.7446 11.8432H7.72266V26.3549H11.7446V16.3545C11.7446 15.0634 11.9736 14.0578 13.2564 14.0578C14.5412 14.0578 14.7705 15.0634 14.7705 16.3545V26.3549H18.7921V14.7161C18.7921 12.7071 17.1111 11.5566 15.1966 11.5566C14.4557 11.5566 13.8004 11.6707 13.2286 11.9582C12.6891 12.216 12.2031 12.6474 11.8045 13.309H11.7447V11.8432H11.7446Z" fill="white"/>
<path d="M20.3652 14.344H21.9905V23.2813C21.9905 24.1698 22.4465 26.4983 25.9287 26.4983C26.8966 26.4983 27.4683 26.4131 28.01 26.3558V23.8567C27.8129 23.9122 27.5519 23.9122 27.2969 23.9122C25.9842 23.9122 26.0121 23.1941 26.0121 22.1034V14.344H28.0959V11.8442H26.0121V7.7334L21.9905 9.54432V11.8442H20.3652V14.344Z" fill="white"/>
<path fill-rule="evenodd" clip-rule="evenodd" d="M33.6278 17.4752C33.6278 16.2408 33.5978 14.0568 35.4522 14.0568C37.3622 14.0568 37.3044 16.068 37.3044 17.4752H33.6278ZM41.3263 19.7451C41.4696 15.0901 40.8722 11.5557 35.4522 11.5557C30.1455 11.5557 29.5737 14.9462 29.5737 18.9121C29.5737 23.4522 30.2591 26.6436 35.4522 26.6436C37.3344 26.6436 38.7607 26.1237 39.7028 25.2333C40.6709 24.3427 41.187 23.0517 41.2448 21.4708H37.1631C37.1631 22.6768 36.8805 24.0572 35.4522 24.0572C33.6854 24.0572 33.6278 21.4708 33.6278 19.7451H41.3263Z" fill="white"/>
<path d="M44.1831 11.8421V26.3537H48.205V18.4518C48.205 17.0138 48.2648 14.9462 51.8027 15.1753V11.5557C50.1749 11.5557 48.8089 12.0426 48.0657 13.7096H48.0078V11.8421H44.1831Z" fill="white"/>
<path d="M57.9214 26.3578V11.1846H57.9771L63.5984 26.3578H69.2755V5.60938H65.2537V19.9791H65.1937L59.7159 5.60938H53.8975V26.3578H57.9214Z" fill="white"/>
<path fill-rule="evenodd" clip-rule="evenodd" d="M76.4087 17.4752C76.4087 16.2408 76.381 14.0568 78.2331 14.0568C80.1435 14.0568 80.0879 16.068 80.0879 17.4752H76.4087ZM84.1095 19.7451C84.251 15.0901 83.6557 11.5557 78.2331 11.5557C72.9247 11.5557 72.355 14.9462 72.355 18.9121C72.355 23.4521 73.0424 26.6436 78.2331 26.6436C80.1158 26.6436 81.5442 26.1237 82.4842 25.2333C83.4545 24.3427 83.9682 23.0517 84.0242 21.4708H79.9466C79.9466 22.6768 79.6594 24.0572 78.2333 24.0572C76.4647 24.0572 76.4089 21.4708 76.4089 19.7451H84.1095Z" fill="white"/>
<path d="M85.3389 14.344H86.9664V23.2813C86.9664 24.1698 87.4227 26.4983 90.9023 26.4983C91.8725 26.4983 92.4443 26.4131 92.9862 26.3558V23.8567C92.7848 23.9122 92.5298 23.9122 92.2731 23.9122C90.9604 23.9122 90.9879 23.1941 90.9879 22.1034V14.344H93.0716V11.8442H90.9879V7.7334L86.9664 9.54432V11.8442H85.3389V14.344Z" fill="white"/>
<path d="M95.6857 36.5879L93.9038 38.9977H86.4771L88.2613 36.5879H95.6857Z" fill="#F44300"/>
<path fill-rule="evenodd" clip-rule="evenodd" d="M112.346 15.96L124 31.1703L117.57 31.1725L109.372 19.9386L112.346 15.96Z" fill="white"/>
<path fill-rule="evenodd" clip-rule="evenodd" d="M121.935 -0.000976562L112.234 13.1695L109.272 9.20779L116.055 -0.000976562H121.935Z" fill="white"/>
<path d="M99.4416 31.523L96.5761 35.3876H89.1519L92.0172 31.523H99.4416ZM93.6982 0.000976562H101.127L111.933 14.6745L99.9861 30.7881L92.5591 30.7903L104.509 14.6745L93.6982 0.000976562Z" fill="#F44300"/>
</g>
<defs>
<clipPath id="clip0_1320:4637">
<rect width="124" height="39" fill="white"/>
</clipPath>
</defs>
</svg>