<svg width="93" height="30" viewBox="0 0 93 30" fill="none" xmlns="http://www.w3.org/2000/svg">
<path d="M3.93039 4.81592H0.745605V20.0423H3.93039V4.81592Z" fill="#111111"/>
<path d="M9.42618 9.39147H6.45264V20.0409H9.42618V12.7021C9.42618 11.7546 9.59552 11.0166 10.5439 11.0166C11.4938 11.0166 11.6634 11.7546 11.6634 12.7021V20.0409H14.6367V11.4998C14.6367 10.0254 13.3939 9.18115 11.9784 9.18115C11.4306 9.18115 10.9461 9.26482 10.5234 9.47583C10.1245 9.66501 9.7652 9.98165 9.47053 10.4671H9.42629V9.39147H9.42618Z" fill="#111111"/>
<path d="M15.8037 11.2265H17.0053V17.7852C17.0053 18.4372 17.3425 20.146 19.917 20.146C20.6326 20.146 21.0553 20.0835 21.4558 20.0414V18.2075C21.3101 18.2481 21.1171 18.2481 20.9286 18.2481C19.9581 18.2481 19.9787 17.7212 19.9787 16.9208V11.2265H21.5193V9.39197H19.9787V6.37524L17.0053 7.7042V9.39197H15.8037V11.2265Z" fill="#111111"/>
<path fill-rule="evenodd" clip-rule="evenodd" d="M25.6106 13.5252C25.6106 12.6193 25.5885 11.0166 26.9594 11.0166C28.3716 11.0166 28.3289 12.4926 28.3289 13.5252H25.6106ZM31.3024 15.191C31.4083 11.7749 30.9667 9.18115 26.9594 9.18115C23.036 9.18115 22.6133 11.6693 22.6133 14.5797C22.6133 17.9115 23.12 20.2536 26.9594 20.2536C28.351 20.2536 29.4055 19.872 30.1021 19.2186C30.8178 18.565 31.1994 17.6176 31.2422 16.4575H28.2244C28.2244 17.3424 28.0155 18.3555 26.9594 18.3555C25.6532 18.3555 25.6106 16.4575 25.6106 15.191H31.3024Z" fill="#111111"/>
<path d="M33.4097 9.39136V20.0408H36.3832V14.2419C36.3832 13.1866 36.4274 11.6693 39.0431 11.8374V9.18115C37.8396 9.18115 36.8297 9.53847 36.2802 10.7618H36.2374V9.39136H33.4097Z" fill="#111111"/>
<path d="M43.5683 20.0423V8.90737H43.6095L47.7655 20.0423H51.9628V4.81592H48.9894V15.3612H48.945L44.8951 4.81592H40.5933V20.0423H43.5683Z" fill="#111111"/>
<path fill-rule="evenodd" clip-rule="evenodd" d="M57.2388 13.5252C57.2388 12.6193 57.2183 11.0166 58.5876 11.0166C60 11.0166 59.959 12.4926 59.959 13.5252H57.2388ZM62.9323 15.191C63.0369 11.7749 62.5967 9.18115 58.5876 9.18115C54.6629 9.18115 54.2417 11.6693 54.2417 14.5797C54.2417 17.9115 54.7499 20.2536 58.5876 20.2536C59.9795 20.2536 61.0356 19.872 61.7306 19.2186C62.448 18.565 62.8278 17.6176 62.8692 16.4575H59.8544C59.8544 17.3424 59.6422 18.3555 58.5877 18.3555C57.2802 18.3555 57.2389 16.4575 57.2389 15.191H62.9323Z" fill="#111111"/>
<path d="M63.8394 11.2258H65.0426V17.7845C65.0426 18.4365 65.38 20.1453 67.9526 20.1453C68.6699 20.1453 69.0927 20.0827 69.4933 20.0407V18.2067C69.3444 18.2474 69.1559 18.2474 68.9661 18.2474C67.9956 18.2474 68.0159 17.7204 68.0159 16.9201V11.2258H69.5565V9.39124H68.0159V6.37451L65.0426 7.70347V9.39124H63.8394V11.2258Z" fill="#111111"/>
<path d="M71.4914 27.5503L70.174 29.3187H64.6831L66.0022 27.5503H71.4914Z" fill="#F44300"/>
<path fill-rule="evenodd" clip-rule="evenodd" d="M83.8084 12.4111L92.4246 23.5733L87.6701 23.5749L81.6094 15.3309L83.8084 12.4111Z" fill="#111111"/>
<path fill-rule="evenodd" clip-rule="evenodd" d="M90.8972 0.69873L83.7249 10.3639L81.5352 7.45664L86.5494 0.69873H90.8972Z" fill="#111111"/>
<path d="M74.2673 23.8333L72.1487 26.6694H66.6597L68.7781 23.8333H74.2673ZM70.0209 0.700684H75.5135L83.5027 11.4689L74.6698 23.294L69.1788 23.2956L78.0135 11.4689L70.0209 0.700684Z" fill="#F44300"/>
</svg>