<svg viewBox="0 0 58.515 16.201">
  <g style="fill:#51a2da;fill-opacity:1;stroke-width:.611975">
    <path d="M96.73 125.358c-3.596 1.39-6.036 4.803-6.046 9.016-.01 4.414 3.082 10.11 9.488 10.152 4.308.028 6.462-1.583 7.626-2.677.771-.684.825-1.87.118-2.62a1.83 1.83 0 0 0-2.627-.038c-.868.815-2.146 2.024-5.772 1.621-1.556-.172-3.228-1.435-3.785-2.401l11.88-5.051a1.824 1.824 0 0 0 .94-2.374c-2.12-4.173-5.88-7.925-11.823-5.628zm7.456 5.49L94.3 135.07c-.706-2.634 2.188-5.733 3.766-6.31 2.366-.865 4.977.108 6.12 2.088z" style="fill:#51a2da;fill-opacity:1;fill-rule:evenodd;stroke:none;stroke-width:.621694" transform="translate(-45.638 -65.81) scale(.56745)"/>
    <path d="M142.758 124.515a10.043 9.962 0 0 0-10.044 9.964 10.043 9.962 0 0 0 10.044 9.96 10.043 9.962 0 0 0 10.042-9.96 10.043 9.962 0 0 0-10.042-9.964zm0 3.732a6.282 6.232 0 0 1 6.283 6.232 6.282 6.232 0 0 1-6.283 6.231 6.282 6.232 0 0 1-6.282-6.231 6.282 6.232 0 0 1 6.282-6.232z" style="fill:#51a2da;fill-opacity:1;stroke-width:18.1847;stroke-linecap:round;stroke-linejoin:round" transform="translate(-45.638 -65.81) scale(.56745)"/>
    <path d="M157.276 124.643c-1.595 0-1.861 1.317-1.853 1.848v15.99c-.044 1.034.812 1.895 1.883 1.895s1.927-.861 1.883-1.895c0 0 .028-5.947 0-9.753-.028-3.807 3.07-4.632 4.148-4.632.8 0 1.44.446 2.074.422.942-.036 1.715-.667 1.715-1.774-.028-1.789-2.223-2.043-3.84-2.01-1.618.034-2.985.53-4.168 1.237 0 0-.246-1.328-1.842-1.328z" style="color:#000;font-style:normal;font-variant:normal;font-weight:400;font-stretch:normal;font-size:medium;line-height:normal;font-family:sans-serif;font-variant-ligatures:normal;font-variant-position:normal;font-variant-caps:normal;font-variant-numeric:normal;font-variant-alternates:normal;font-feature-settings:normal;text-indent:0;text-align:start;text-decoration:none;text-decoration-line:none;text-decoration-style:solid;text-decoration-color:#000;letter-spacing:normal;word-spacing:normal;text-transform:none;writing-mode:lr-tb;direction:ltr;text-orientation:mixed;dominant-baseline:auto;baseline-shift:baseline;text-anchor:start;white-space:normal;shape-padding:0;clip-rule:nonzero;display:inline;overflow:visible;visibility:visible;isolation:auto;mix-blend-mode:normal;color-interpolation:sRGB;color-interpolation-filters:linearRGB;solid-color:#000;solid-opacity:1;vector-effect:none;fill:#51a2da;fill-opacity:1;fill-rule:nonzero;stroke:none;stroke-width:3.73014;stroke-linecap:round;stroke-linejoin:round;stroke-miterlimit:4;stroke-dasharray:none;stroke-dashoffset:0;stroke-opacity:1;color-rendering:auto;image-rendering:auto;shape-rendering:auto;text-rendering:auto;enable-background:accumulate" transform="translate(-45.638 -65.81) scale(.56745)"/>
    <g style="fill:#51a2da;fill-opacity:1;stroke-width:.996555">
      <path d="M60.088 141.887c-1.393 0-2.398.428-3.13.97-1.11.824.084 2.544 1.195 1.721.505-.374.88-.574 1.935-.574 1.313.028 2.369.538 2.369 1.555-.704.46-3.764.842-5.407 1.81-1.643.966-1.556 2.187-1.556 2.98 0 1.737 1.77 2.909 3.302 2.909s2.183-.333 3.682-1.396v.304c-.049 1.46 2.096 1.46 2.048 0v-6.238c.006-2.587-1.788-4.001-4.438-4.04zm2.44 5.756c0 .686.009.884-.01 1.57-.003.823-.503 1.205-1.026 1.52-.523.315-1.586.591-2.202.621-.71.025-1.653-.142-1.702-1.014 0-.526.247-.853.651-1.216.958-.744 2.256-.994 4.289-1.481z" style="color:#000;font-style:normal;font-variant:normal;font-weight:400;font-stretch:normal;font-size:medium;line-height:normal;font-family:sans-serif;font-variant-ligatures:normal;font-variant-position:normal;font-variant-caps:normal;font-variant-numeric:normal;font-variant-alternates:normal;font-feature-settings:normal;text-indent:0;text-align:start;text-decoration:none;text-decoration-line:none;text-decoration-style:solid;text-decoration-color:#000;letter-spacing:normal;word-spacing:normal;text-transform:none;writing-mode:lr-tb;direction:ltr;text-orientation:mixed;dominant-baseline:auto;baseline-shift:baseline;text-anchor:start;white-space:normal;shape-padding:0;clip-rule:nonzero;display:inline;overflow:visible;visibility:visible;opacity:1;isolation:auto;mix-blend-mode:normal;color-interpolation:sRGB;color-interpolation-filters:linearRGB;solid-color:#000;solid-opacity:1;vector-effect:none;fill:#51a2da;fill-opacity:1;fill-rule:nonzero;stroke:none;stroke-width:2.10934;stroke-linecap:butt;stroke-linejoin:miter;stroke-miterlimit:4;stroke-dasharray:none;stroke-dashoffset:0;stroke-opacity:1;color-rendering:auto;image-rendering:auto;shape-rendering:auto;text-rendering:auto;enable-background:accumulate" transform="matrix(1.021 0 0 .98623 -7.366 -135.038)"/>
    </g>
    <path d="M128.563 116.326c-1.152-.07-2 1.071-1.823 2.154v8.364c-3.637-3.049-9.56-2.837-12.916.54-3.395 3.024-4.04 8.51-1.57 12.288 1.813 2.852 5.13 4.885 8.55 4.724 2.15-.02 4.282-.946 5.936-2.317-.17 1.083.666 2.226 1.823 2.156 1.136.051 2.015-1.07 1.84-2.154-.019-8.045.02-16.09-.019-24.133-.059-.907-.927-1.653-1.832-1.622zm-7.977 12.018c3.283-.085 6.215 2.87 6.154 6.123.069 3.256-2.874 6.206-6.154 6.123-3.12.082-5.978-2.56-6.137-5.657-.333-3.193 2.289-6.305 5.5-6.558.211-.02.424-.03.637-.03z" style="font-style:normal;font-variant:normal;font-weight:700;font-stretch:normal;font-size:medium;line-height:25px;font-family:Comfortaa;-inkscape-font-specification:Comfortaa;letter-spacing:0;word-spacing:0;fill:#51a2da;fill-opacity:1;stroke:none;stroke-width:.939054px;stroke-linecap:butt;stroke-linejoin:miter;stroke-opacity:1" transform="translate(-45.638 -65.81) scale(.56745)"/>
    <g style="fill:#51a2da;fill-opacity:1;stroke-width:1.02221">
      <path d="M-2.531 143.63v11.474c-.003 1.414 2.12 1.414 2.117 0v-7.658h2.178c.509 0 .944-.374.944-.974a.94.94 0 0 0-.944-.965H-.414v-1.765c0-1.129.871-2.068 2.625-2.046.61.008.826.157 1.049.295 1.216.817 2.386-1.075 1.113-1.8-.782-.484-1.511-.655-2.382-.655-2.745 0-4.506 2.114-4.522 4.093z" style="font-style:normal;font-variant:normal;font-weight:700;font-stretch:normal;font-size:medium;line-height:25px;font-family:Comfortaa;-inkscape-font-specification:Comfortaa;letter-spacing:0;word-spacing:0;fill:#51a2da;fill-opacity:1;stroke:none;stroke-width:2.16367;stroke-linecap:butt;stroke-linejoin:miter;stroke-miterlimit:4;stroke-dasharray:none;stroke-opacity:1" transform="matrix(.9852 0 0 .9714 2.494 -135.545)"/>
    </g>
  </g>
</svg>
