<?xml version="1.0" encoding="utf-8"?>
<svg xmlns="http://www.w3.org/2000/svg" xmlns:xlink="http://www.w3.org/1999/xlink" version="1.1" x="0px" y="0px" viewBox="0 0 106.901 106.901" style="enable-background:new 0 0 106.901 106.901;" xml:space="preserve" width="512px" height="512px">
	<path d="M58.767,94.652c19.545,0,35.446-15.901,35.446-35.446S78.312,23.76,58.767,23.76   c-9.751,0-18.902,3.993-25.492,10.811V6h48.757c1.657,0,3-1.343,3-3s-1.343-3-3-3H30.275c-1.657,0-3,1.343-3,3v39.867l-0.035,0.731   c-0.065,1.397,0.843,2.655,2.189,3.031c1.351,0.377,2.776-0.229,3.443-1.457c5.165-9.507,15.087-15.413,25.895-15.413   c16.236,0,29.446,13.209,29.446,29.446s-13.21,29.446-29.446,29.446c-5.459,0-10.643-1.536-15.109-4.213V59.206   c0-8.332,6.778-15.11,15.109-15.11s15.109,6.778,15.109,15.11s-6.778,15.11-15.109,15.11c-2.017,0-3.974-0.39-5.817-1.16   c-1.523-0.638-3.285,0.083-3.924,1.613c-0.638,1.529,0.084,3.286,1.613,3.924c2.579,1.077,5.313,1.623,8.128,1.623   c11.64,0,21.109-9.47,21.109-21.11s-9.47-21.11-21.109-21.11s-21.109,9.47-21.109,21.11v20.502   c-3.378-3.466-5.935-7.775-7.281-12.658c-0.44-1.597-2.091-2.536-3.689-2.095c-1.598,0.44-2.535,2.092-2.096,3.689   C28.813,83.958,42.865,94.652,58.767,94.652z" fill="#FFFFFF"/>
	<path d="M40.739,15.157c-1.514,0.672-2.196,2.445-1.524,3.959c0.672,1.513,2.443,2.198,3.96,1.524   c9.402-4.175,27.877-8.537,45.937,9.173c0.584,0.573,1.343,0.858,2.101,0.858c0.777,0,1.555-0.3,2.142-0.899   c1.16-1.183,1.142-3.083-0.041-4.243C71.953,4.583,49.43,11.297,40.739,15.157z" fill="#FFFFFF"/>
	<path d="M94.379,86.299c-1.251-1.086-3.146-0.955-4.232,0.296c-7.905,9.092-19.343,14.307-31.38,14.307   c-21.147,0-38.9-15.819-41.295-36.797c-0.188-1.646-1.678-2.832-3.32-2.64c-1.646,0.188-2.829,1.674-2.641,3.321   c2.74,24.01,23.056,42.117,47.256,42.117c13.774,0,26.862-5.967,35.907-16.37C95.761,89.281,95.629,87.386,94.379,86.299z" fill="#FFFFFF"/>
	<path d="M51.133,66.479c0.587,0.595,1.361,0.894,2.136,0.894c0.761,0,1.522-0.288,2.106-0.864l3.081-3.038   l3.038,3.08c0.587,0.595,1.361,0.894,2.136,0.894c0.761,0,1.522-0.288,2.106-0.864c1.18-1.164,1.193-3.063,0.029-4.243l-3.037-3.08   l2.969-2.927c1.18-1.164,1.193-3.063,0.029-4.243c-1.164-1.18-3.064-1.193-4.242-0.03l-2.969,2.928l-2.928-2.969   c-1.164-1.18-3.064-1.193-4.242-0.03c-1.18,1.164-1.193,3.063-0.029,4.243l2.927,2.968l-3.08,3.038   C49.983,63.4,49.969,65.299,51.133,66.479z" fill="#FFFFFF"/>
</svg>
